<svg width="244" height="244" viewBox="0 0 244 244" fill="none" xmlns="http://www.w3.org/2000/svg">
<g filter="url(#filter0_d)">
<path fill-rule="evenodd" clip-rule="evenodd" d="M117.15 34.1769C134.779 36.7744 135.385 64.4293 148.486 76.7652C159.121 86.7783 180.608 84.2412 185.206 98.2552C189.796 112.245 173.181 123.965 168.561 137.944C164.027 151.662 169.847 170.39 158.499 179.054C147.167 187.706 131.286 176.753 117.15 177.196C102.308 177.662 87.123 188.648 73.9164 181.707C60.4617 174.635 57.4267 156.904 51.4811 142.681C44.8611 126.844 31.6739 110.567 37.4101 94.3736C43.1495 78.1711 64.9254 76.6859 78.4842 66.4503C92.2048 56.0924 100.269 31.6894 117.15 34.1769Z" stroke="url(#paint0_linear)" stroke-width="5"/>
</g>
<path d="M97.5 119.125V128.5H106.875L134.525 100.85L125.15 91.475L97.5 119.125ZM104.8 123.5H102.5V121.2L125.15 98.55L127.45 100.85L104.8 123.5ZM141.775 90.075L135.925 84.225C135.425 83.725 134.8 83.5 134.15 83.5C133.5 83.5 132.875 83.75 132.4 84.225L127.825 88.8L137.2 98.175L141.775 93.6C142.75 92.625 142.75 91.05 141.775 90.075V90.075Z" fill="#F8F8FF"/>
<path d="M58.5 132.25C64 129.75 75.6 126.25 78 132.25C81 139.75 77.25 147.25 88.5 146.5C99.75 145.75 105 130 110.25 138.25" stroke="#F8F8FF"/>
<defs>
<filter id="filter0_d" x="0.499512" y="0.498291" width="243.002" height="243.002" filterUnits="userSpaceOnUse" color-interpolation-filters="sRGB">
<feFlood flood-opacity="0" result="BackgroundImageFix"/>
<feColorMatrix in="SourceAlpha" type="matrix" values="0 0 0 0 0 0 0 0 0 0 0 0 0 0 0 0 0 0 127 0"/>
<feOffset dx="11" dy="13"/>
<feGaussianBlur stdDeviation="22"/>
<feColorMatrix type="matrix" values="0 0 0 0 0 0 0 0 0 0 0 0 0 0 0 0 0 0 0.25 0"/>
<feBlend mode="normal" in2="BackgroundImageFix" result="effect1_dropShadow"/>
<feBlend mode="normal" in="SourceGraphic" in2="effect1_dropShadow" result="shape"/>
</filter>
<linearGradient id="paint0_linear" x1="135.174" y1="184" x2="53.0865" y2="87.3282" gradientUnits="userSpaceOnUse">
<stop offset="0.0572917" stop-color="#20E4FF"/>
<stop offset="1" stop-color="#8B30FF"/>
</linearGradient>
</defs>
</svg>
