<svg width="32" height="28" viewBox="0 0 32 28" fill="none" xmlns="http://www.w3.org/2000/svg">
<path d="M13.4737 13.5758C17.1958 13.5758 20.2105 10.5382 20.2105 6.78788C20.2105 3.03758 17.1958 0 13.4737 0C9.75158 0 6.73684 3.03758 6.73684 6.78788C6.73684 10.5382 9.75158 13.5758 13.4737 13.5758ZM13.4737 3.39394C15.3263 3.39394 16.8421 4.92121 16.8421 6.78788C16.8421 8.65455 15.3263 10.1818 13.4737 10.1818C11.6211 10.1818 10.1053 8.65455 10.1053 6.78788C10.1053 4.92121 11.6211 3.39394 13.4737 3.39394ZM3.36842 23.7576C3.70526 22.6885 7.69684 20.9067 11.7221 20.4655L15.1579 17.0715C14.5011 17.0036 14.0126 16.9697 13.4737 16.9697C8.97684 16.9697 0 19.2436 0 23.7576V27.1515H15.1579L11.7895 23.7576H3.36842ZM29.6421 14.4242L21.0021 23.1976L17.5158 19.6679L15.1579 22.0606L21.0021 28L32 16.817L29.6421 14.4242Z" fill="#C7C7C7"/>
</svg>
