<svg width="160" height="230" viewBox="0 0 160 230" fill="none" xmlns="http://www.w3.org/2000/svg">
<path fill-rule="evenodd" clip-rule="evenodd" d="M136.891 30.0019C138.58 29.9459 140.042 31.1386 141.684 31.5424C143.536 31.9977 145.542 31.7243 147.265 32.5518C149.117 33.4414 151.67 34.4251 151.971 36.4837C152.325 38.8999 149.301 40.6047 148.792 42.992C148.453 44.5848 149.584 46.1461 149.564 47.7757C149.543 49.6081 149.64 51.6043 148.672 53.1506C147.709 54.6893 145.966 55.617 144.274 56.2263C142.657 56.8085 140.798 55.9821 139.183 56.5679C137.224 57.2782 136.039 59.697 133.975 59.9607C132.021 60.2104 129.961 59.2387 128.465 57.9372C126.973 56.6389 126.765 54.379 125.661 52.728C124.609 51.1546 122.514 50.2439 122.082 48.393C121.647 46.5273 123.07 44.7336 123.354 42.8381C123.623 41.0432 123.213 39.1911 123.722 37.4508C124.261 35.6081 124.813 33.4674 126.401 32.4218C128.049 31.3362 130.302 32.2983 132.217 31.8564C133.862 31.477 135.205 30.0578 136.891 30.0019Z" fill="#F8F8FF" stroke="url(#paint0_linear)" stroke-width="2"/>
<rect x="1" y="1" width="158" height="228" rx="49" stroke="#F8F8FF" stroke-width="2"/>
<path d="M135.024 152.029L135.064 151.743C135.188 150.867 135.306 149.961 135.306 149.062C135.306 148.145 135.246 147.245 135.07 146.416L135.006 146.112L135.25 145.92L141.111 141.304C141.442 141.005 141.543 140.519 141.312 140.13L141.309 140.124L141.309 140.124L135.744 130.437L135.736 130.423L135.729 130.409C135.566 130.08 135.135 129.901 134.606 130.037L127.772 132.838L127.502 132.949L127.273 132.767C125.883 131.668 124.379 130.757 122.699 130.09L122.429 129.983L122.389 129.696L121.337 122.321L121.335 122.306L121.334 122.291C121.294 121.804 120.896 121.5 120.534 121.5H109.466C109.013 121.5 108.64 121.833 108.604 122.232L108.603 122.245L108.601 122.258L107.55 129.633L107.511 129.906L107.259 130.019C105.611 130.759 104.044 131.614 102.666 132.705L102.436 132.886L102.166 132.775L95.3046 129.964C95.3043 129.963 95.3039 129.963 95.3036 129.963C94.927 129.811 94.4441 129.956 94.1923 130.377L88.6377 140.047C88.4099 140.519 88.497 140.983 88.814 141.232L88.8143 141.232L94.6884 145.857L94.9144 146.035L94.8741 146.32C94.754 147.17 94.6936 148.084 94.6936 149C94.6936 149.916 94.754 150.83 94.8741 151.68L94.9144 151.965L94.6884 152.143L88.8267 156.758C88.4961 157.058 88.3948 157.543 88.6258 157.932L88.6295 157.938L88.6294 157.938L94.1943 167.626L94.202 167.639L94.2089 167.653C94.3718 167.983 94.8035 168.161 95.3321 168.025L102.166 165.225L102.436 165.114L102.666 165.295C104.055 166.394 105.559 167.306 107.239 167.973L107.509 168.08L107.55 168.367L108.599 175.732C108.687 176.199 109.052 176.5 109.466 176.5H120.534C120.987 176.5 121.36 176.167 121.396 175.768L121.397 175.755L121.399 175.742L122.45 168.367L122.489 168.094L122.741 167.981C124.39 167.24 125.953 166.387 127.264 165.302L127.494 165.112L127.771 165.224L134.695 168.036L135.024 152.029ZM135.024 152.029L135.252 152.207M135.024 152.029L135.252 152.207M135.252 152.207L141.174 156.821C141.517 157.133 141.589 157.606 141.387 157.912L141.378 157.925M135.252 152.207L141.378 157.925M141.378 157.925L141.371 157.938M141.378 157.925L141.371 157.938M141.371 157.938L135.809 167.62C135.809 167.621 135.808 167.622 135.808 167.623M141.371 157.938L135.808 167.623M135.808 167.623C135.556 168.044 135.073 168.189 134.696 168.037L135.808 167.623ZM106.122 149C106.122 153.961 110.115 157.938 114.969 157.938C119.823 157.938 123.816 153.961 123.816 149C123.816 144.041 119.888 140.062 114.969 140.062C110.05 140.062 106.122 144.041 106.122 149Z" stroke="url(#paint1_linear)"/>
<path d="M101.267 110.138L101.267 110.138L101.263 110.145L92.5285 125.35C92.5278 125.351 92.5272 125.352 92.5266 125.353C92.0903 126.082 91.2274 126.371 90.4558 126.083L79.6002 121.685L79.332 121.576L79.1042 121.755C76.8937 123.486 74.4345 124.911 71.8486 126.027L71.5904 126.138L71.5515 126.417L69.9299 138.036C69.779 138.874 69.0418 139.5 68.239 139.5H50.761C49.9518 139.5 49.2189 138.868 49.0697 138.096L47.4485 126.479L47.4092 126.198L47.1475 126.088C44.5051 124.974 42.1089 123.551 39.8958 121.818L39.668 121.639L39.3998 121.748L28.5442 126.146C27.7726 126.434 26.9098 126.145 26.4735 125.416C26.4728 125.415 26.4722 125.414 26.4715 125.413L17.7365 110.208L17.7366 110.208L17.7325 110.201C17.3059 109.485 17.4859 108.561 18.12 108.015L27.3505 100.73L27.573 100.554L27.5366 100.273C27.3511 98.8406 27.2287 97.4175 27.2287 96C27.2287 94.5823 27.3511 93.1597 27.5362 91.7928L27.5745 91.51L27.3505 91.3332L18.12 84.048C17.4859 83.5024 17.3059 82.5776 17.7325 81.8616L17.7326 81.8617L17.7365 81.8548L26.4735 66.647C26.9098 65.9182 27.7726 65.6286 28.5443 65.9172L39.3998 70.3148L39.668 70.4235L39.8958 70.2451C42.1063 68.5138 44.5655 67.0893 47.1514 65.9734L47.4096 65.8619L47.4485 65.5834L49.0701 53.9639C49.2211 53.1256 49.9582 52.5 50.761 52.5H68.239C69.0482 52.5 69.7811 53.1323 69.9303 53.904L71.5515 65.5205L71.5908 65.8018L71.8525 65.9122C74.495 67.026 76.8912 68.4489 79.1042 70.1822L79.332 70.3606L79.6002 70.252L90.4558 65.8544C91.2274 65.5658 92.0903 65.8553 92.5266 66.5842C92.5272 66.5852 92.5278 66.5863 92.5285 66.5874L101.263 81.7919L101.263 81.792L101.267 81.7988C101.694 82.5147 101.514 83.4395 100.88 83.9851L91.6495 91.2704L91.427 91.446L91.4634 91.7271C91.6489 93.1594 91.7714 94.5825 91.7714 96C91.7714 97.4177 91.6489 98.8403 91.4638 100.207L91.4255 100.49L91.6495 100.667L100.88 107.952C101.514 108.498 101.694 109.422 101.267 110.138ZM46.5157 96C46.5157 103.187 52.3542 109.071 59.5 109.071C66.6458 109.071 72.4843 103.187 72.4843 96C72.4843 88.8129 66.6458 82.9286 59.5 82.9286C52.3542 82.9286 46.5157 88.8129 46.5157 96Z" stroke="url(#paint2_linear)"/>
<defs>
<linearGradient id="paint0_linear" x1="141.835" y1="60" x2="125.417" y2="40.6656" gradientUnits="userSpaceOnUse">
<stop offset="0.0572917" stop-color="#20E4FF"/>
<stop offset="1" stop-color="#8B30FF"/>
</linearGradient>
<linearGradient id="paint1_linear" x1="123.702" y1="177" x2="92.8954" y2="142.015" gradientUnits="userSpaceOnUse">
<stop offset="0.0572917" stop-color="#20E4FF"/>
<stop offset="1" stop-color="#8B30FF"/>
</linearGradient>
<linearGradient id="paint2_linear" x1="73.1983" y1="140" x2="24.7976" y2="84.9428" gradientUnits="userSpaceOnUse">
<stop offset="0.0572917" stop-color="#20E4FF"/>
<stop offset="1" stop-color="#8B30FF"/>
</linearGradient>
</defs>
</svg>
