<svg width="107" height="106" viewBox="0 0 107 106" fill="none" xmlns="http://www.w3.org/2000/svg">
<g filter="url(#filter0_d)">
<mask id="path-1-inside-1" fill="white">
<path d="M87.4872 54.802C87.6887 53.234 87.8398 51.666 87.8398 50C87.8398 48.334 87.6887 46.766 87.4872 45.198L98.1162 37.113C99.0734 36.378 99.3252 35.055 98.7207 33.977L88.6458 17.023C88.1924 16.239 87.3361 15.798 86.4293 15.798C86.1271 15.798 85.8248 15.847 85.5729 15.945L73.0297 20.845C70.4102 18.885 67.5892 17.268 64.5164 16.043L62.6021 3.058C62.451 1.882 61.3931 1 60.1338 1H39.9839C38.7246 1 37.6667 1.882 37.5156 3.058L35.6013 16.043C32.5285 17.268 29.7075 18.934 27.088 20.845L14.5448 15.945C14.2425 15.847 13.9403 15.798 13.638 15.798C12.7816 15.798 11.9253 16.239 11.4719 17.023L1.39698 33.977C0.742115 35.055 1.04436 36.378 2.00148 37.113L12.6305 45.198C12.429 46.766 12.2779 48.383 12.2779 50C12.2779 51.617 12.429 53.234 12.6305 54.802L2.00148 62.887C1.04436 63.622 0.792489 64.945 1.39698 66.023L11.4719 82.977C11.9253 83.761 12.7816 84.202 13.6884 84.202C13.9906 84.202 14.2929 84.153 14.5448 84.055L27.088 79.155C29.7075 81.115 32.5285 82.732 35.6013 83.957L37.5156 96.942C37.6667 98.118 38.7246 99 39.9839 99H60.1338C61.3931 99 62.451 98.118 62.6021 96.942L64.5164 83.957C67.5892 82.732 70.4102 81.066 73.0297 79.155L85.5729 84.055C85.8752 84.153 86.1774 84.202 86.4797 84.202C87.3361 84.202 88.1924 83.761 88.6458 82.977L98.7207 66.023C99.3252 64.945 99.0734 63.622 98.1162 62.887L87.4872 54.802ZM77.513 46.423C77.7145 47.942 77.7649 48.971 77.7649 50C77.7649 51.029 77.6641 52.107 77.513 53.577L76.8078 59.114L81.2911 62.544L86.7316 66.66L83.2053 72.589L76.8078 70.09L71.5688 68.032L67.0351 71.364C64.869 72.932 62.8036 74.108 60.7383 74.941L55.3986 77.048L54.5926 82.585L53.5851 89.2H46.5326L45.5755 82.585L44.7695 77.048L39.4298 74.941C37.2637 74.059 35.2487 72.932 33.2337 71.462L28.6496 68.032L23.3099 70.139L16.9124 72.638L13.3861 66.709L18.8266 62.593L23.3099 59.163L22.6047 53.626C22.4536 52.107 22.3528 50.98 22.3528 50C22.3528 49.02 22.4536 47.893 22.6047 46.423L23.3099 40.886L18.8266 37.456L13.3861 33.34L16.9124 27.411L23.3099 29.91L28.5489 31.968L33.0826 28.636C35.2487 27.068 37.3141 25.892 39.3794 25.059L44.7191 22.952L45.5251 17.415L46.5326 10.8H53.5347L54.4918 17.415L55.2978 22.952L60.6375 25.059C62.8036 25.941 64.8186 27.068 66.8336 28.538L71.4177 31.968L76.7574 29.861L83.155 27.362L86.6812 33.291L81.2911 37.456L76.8078 40.886L77.513 46.423ZM50.0589 30.4C38.9261 30.4 29.909 39.171 29.909 50C29.909 60.829 38.9261 69.6 50.0589 69.6C61.1916 69.6 70.2087 60.829 70.2087 50C70.2087 39.171 61.1916 30.4 50.0589 30.4ZM50.0589 59.8C44.5177 59.8 39.9839 55.39 39.9839 50C39.9839 44.61 44.5177 40.2 50.0589 40.2C55.6001 40.2 60.1338 44.61 60.1338 50C60.1338 55.39 55.6001 59.8 50.0589 59.8Z"/>
</mask>
<path d="M87.4872 54.802C87.6887 53.234 87.8398 51.666 87.8398 50C87.8398 48.334 87.6887 46.766 87.4872 45.198L98.1162 37.113C99.0734 36.378 99.3252 35.055 98.7207 33.977L88.6458 17.023C88.1924 16.239 87.3361 15.798 86.4293 15.798C86.1271 15.798 85.8248 15.847 85.5729 15.945L73.0297 20.845C70.4102 18.885 67.5892 17.268 64.5164 16.043L62.6021 3.058C62.451 1.882 61.3931 1 60.1338 1H39.9839C38.7246 1 37.6667 1.882 37.5156 3.058L35.6013 16.043C32.5285 17.268 29.7075 18.934 27.088 20.845L14.5448 15.945C14.2425 15.847 13.9403 15.798 13.638 15.798C12.7816 15.798 11.9253 16.239 11.4719 17.023L1.39698 33.977C0.742115 35.055 1.04436 36.378 2.00148 37.113L12.6305 45.198C12.429 46.766 12.2779 48.383 12.2779 50C12.2779 51.617 12.429 53.234 12.6305 54.802L2.00148 62.887C1.04436 63.622 0.792489 64.945 1.39698 66.023L11.4719 82.977C11.9253 83.761 12.7816 84.202 13.6884 84.202C13.9906 84.202 14.2929 84.153 14.5448 84.055L27.088 79.155C29.7075 81.115 32.5285 82.732 35.6013 83.957L37.5156 96.942C37.6667 98.118 38.7246 99 39.9839 99H60.1338C61.3931 99 62.451 98.118 62.6021 96.942L64.5164 83.957C67.5892 82.732 70.4102 81.066 73.0297 79.155L85.5729 84.055C85.8752 84.153 86.1774 84.202 86.4797 84.202C87.3361 84.202 88.1924 83.761 88.6458 82.977L98.7207 66.023C99.3252 64.945 99.0734 63.622 98.1162 62.887L87.4872 54.802ZM77.513 46.423C77.7145 47.942 77.7649 48.971 77.7649 50C77.7649 51.029 77.6641 52.107 77.513 53.577L76.8078 59.114L81.2911 62.544L86.7316 66.66L83.2053 72.589L76.8078 70.09L71.5688 68.032L67.0351 71.364C64.869 72.932 62.8036 74.108 60.7383 74.941L55.3986 77.048L54.5926 82.585L53.5851 89.2H46.5326L45.5755 82.585L44.7695 77.048L39.4298 74.941C37.2637 74.059 35.2487 72.932 33.2337 71.462L28.6496 68.032L23.3099 70.139L16.9124 72.638L13.3861 66.709L18.8266 62.593L23.3099 59.163L22.6047 53.626C22.4536 52.107 22.3528 50.98 22.3528 50C22.3528 49.02 22.4536 47.893 22.6047 46.423L23.3099 40.886L18.8266 37.456L13.3861 33.34L16.9124 27.411L23.3099 29.91L28.5489 31.968L33.0826 28.636C35.2487 27.068 37.3141 25.892 39.3794 25.059L44.7191 22.952L45.5251 17.415L46.5326 10.8H53.5347L54.4918 17.415L55.2978 22.952L60.6375 25.059C62.8036 25.941 64.8186 27.068 66.8336 28.538L71.4177 31.968L76.7574 29.861L83.155 27.362L86.6812 33.291L81.2911 37.456L76.8078 40.886L77.513 46.423ZM50.0589 30.4C38.9261 30.4 29.909 39.171 29.909 50C29.909 60.829 38.9261 69.6 50.0589 69.6C61.1916 69.6 70.2087 60.829 70.2087 50C70.2087 39.171 61.1916 30.4 50.0589 30.4ZM50.0589 59.8C44.5177 59.8 39.9839 55.39 39.9839 50C39.9839 44.61 44.5177 40.2 50.0589 40.2C55.6001 40.2 60.1338 44.61 60.1338 50C60.1338 55.39 55.6001 59.8 50.0589 59.8Z" stroke="url(#paint0_linear)" stroke-width="4" mask="url(#path-1-inside-1)"/>
</g>
<defs>
<filter id="filter0_d" x="0.0477295" y="0" width="106" height="106" filterUnits="userSpaceOnUse" color-interpolation-filters="sRGB">
<feFlood flood-opacity="0" result="BackgroundImageFix"/>
<feColorMatrix in="SourceAlpha" type="matrix" values="0 0 0 0 0 0 0 0 0 0 0 0 0 0 0 0 0 0 127 0"/>
<feOffset dx="3" dy="3"/>
<feGaussianBlur stdDeviation="2"/>
<feColorMatrix type="matrix" values="0 0 0 0 0 0 0 0 0 0 0 0 0 0 0 0 0 0 0.25 0"/>
<feBlend mode="normal" in2="BackgroundImageFix" result="effect1_dropShadow"/>
<feBlend mode="normal" in="SourceGraphic" in2="effect1_dropShadow" result="shape"/>
</filter>
<linearGradient id="paint0_linear" x1="65.8411" y1="99" x2="12.2109" y2="35.8411" gradientUnits="userSpaceOnUse">
<stop offset="0.0572917" stop-color="#20E4FF"/>
<stop offset="1" stop-color="#8B30FF"/>
</linearGradient>
</defs>
</svg>
