<svg width="445" height="438" viewBox="0 0 445 438" fill="none" xmlns="http://www.w3.org/2000/svg">
<path d="M417.5 214C417.5 324.181 328.404 413.5 218.5 413.5C108.597 413.5 19.5 324.181 19.5 214C19.5 103.818 108.597 14.4995 218.5 14.4995C328.404 14.4995 417.5 103.818 417.5 214Z" stroke="#C7C7C7"/>
<g filter="url(#filter0_d)">
<path d="M344 342H376V366H346.34L344 368.34V342ZM344 338C341.8 338 340.02 339.8 340.02 342L340 378L348 370H376C378.2 370 380 368.2 380 366V342C380 339.8 378.2 338 376 338H344ZM348 358H372V362H348V358ZM348 352H372V356H348V352ZM348 346H372V350H348V346Z" fill="#C7C7C7"/>
<path d="M344 341.5H343.5V342V368.34V369.547L344.354 368.693L346.547 366.5H376H376.5V366V342V341.5H376H344ZM340.52 342V342C340.52 340.072 342.079 338.5 344 338.5H376C377.924 338.5 379.5 340.076 379.5 342V366C379.5 367.923 377.924 369.5 376 369.5H348H347.793L347.646 369.646L340.501 376.792L340.52 342ZM348.5 358.5H371.5V361.5H348.5V358.5ZM348.5 352.5H371.5V355.5H348.5V352.5ZM348.5 346.5H371.5V349.5H348.5V346.5Z" stroke="#C7C7C7"/>
</g>
<g filter="url(#filter1_d)">
<path d="M51.4332 305.779L51.2277 306.116L51.5074 306.394C53.6323 308.507 53.9812 308.858 54.5557 309.436C54.9037 309.787 55.3345 310.22 56.2929 311.179L54.18 313.292L49.3936 308.506L49.1189 308.231L48.7849 308.429C47.6724 309.089 46.3795 309.5 45 309.5C40.8561 309.5 37.5 306.143 37.5 302C37.5 297.856 40.8561 294.5 45 294.5C49.1439 294.5 52.5 297.856 52.5 302C52.5 303.383 52.1076 304.674 51.4332 305.779ZM40.5 302C40.5 304.476 42.5239 306.5 45 306.5C47.4761 306.5 49.5 304.476 49.5 302C49.5 299.523 47.4761 297.5 45 297.5C42.5239 297.5 40.5 299.523 40.5 302Z" fill="#C7C7C7" stroke="#C7C7C7"/>
<path d="M20.5218 305.853L20.3244 306.5H21H33.3499C33.7646 307.588 34.3315 308.59 35.02 309.5H17.5V306C17.5 304.824 18.1013 303.755 19.1751 302.794C20.2517 301.83 21.7658 301.011 23.4813 300.354C26.6389 299.145 30.3676 298.525 33.0148 298.51C32.7325 299.461 32.5537 300.466 32.5103 301.506C29.8943 301.577 27.155 302.204 24.9778 302.989C23.8203 303.407 22.8057 303.875 22.0437 304.34C21.6632 304.572 21.334 304.811 21.0793 305.05C20.8331 305.28 20.6144 305.55 20.5218 305.853Z" fill="#C7C7C7" stroke="#C7C7C7"/>
<path d="M40.5 286C40.5 290.143 37.1439 293.5 33 293.5C28.8561 293.5 25.5 290.143 25.5 286C25.5 281.856 28.8561 278.5 33 278.5C37.1439 278.5 40.5 281.856 40.5 286ZM37.5 286C37.5 283.523 35.4761 281.5 33 281.5C30.5239 281.5 28.5 283.523 28.5 286C28.5 288.476 30.5239 290.5 33 290.5C35.4761 290.5 37.5 288.476 37.5 286Z" fill="#C7C7C7" stroke="#C7C7C7"/>
</g>
<g filter="url(#filter2_d)">
<path d="M413.333 148.333C415.167 148.333 416.65 146.833 416.65 145L416.667 128.333C416.667 126.483 415.167 125 413.333 125H386.667C384.817 125 383.333 126.483 383.333 128.333V145C383.333 146.833 384.817 148.333 386.667 148.333H380V151.666H420V148.333H413.333ZM386.667 145V128.333H413.333V145.016L386.667 145ZM401.667 133.55C395.183 134.45 392.6 138.883 391.667 143.333C393.983 140.216 397.033 138.8 401.667 138.8V142.45L408.333 136.216L401.667 130V133.55Z" fill="#C7C7C7"/>
<path d="M416.15 145C416.15 146.56 414.887 147.833 413.333 147.833V148.333V148.833H419.5V151.166H380.5V148.833H386.667V148.333V147.833C385.094 147.833 383.833 146.558 383.833 145V128.333C383.833 126.759 385.093 125.5 386.667 125.5H413.333C414.892 125.5 416.166 126.76 416.167 128.332C416.167 128.333 416.167 128.333 416.167 128.333L416.15 144.999V145ZM386.167 145V145.499L386.666 145.5L413.333 145.516L413.833 145.516V145.016V128.333V127.833H413.333H386.667H386.167V128.333V145ZM401.735 134.045L402.167 133.985V133.55V131.149L407.601 136.217L402.167 141.298V138.8V138.3H401.667C399.3 138.3 397.304 138.661 395.59 139.442C394.522 139.93 393.574 140.575 392.721 141.383C393.22 139.949 393.94 138.593 394.96 137.441C396.449 135.759 398.605 134.479 401.735 134.045Z" stroke="#C7C7C7"/>
</g>
<g filter="url(#filter3_d)">
<path d="M88.7112 331.021L67.2673 331C64.9085 331 63 332.929 63 335.288V373.887C63 376.246 64.9085 378.176 67.2673 378.176H88.7112C91.0701 378.176 93 376.246 93 373.887V335.288C93 332.929 91.0701 331.021 88.7112 331.021ZM88.7112 369.599H67.2673V339.577H88.7112V369.599Z" fill="#C7C7C7"/>
<path d="M88.7107 331.521H88.7112C90.7972 331.521 92.5 333.209 92.5 335.288V373.887C92.5 375.97 90.7939 377.676 88.7112 377.676H67.2673C65.1879 377.676 63.5 375.973 63.5 373.887V335.288C63.5 333.202 65.1878 331.5 67.2671 331.5C67.2672 331.5 67.2672 331.5 67.2673 331.5L88.7107 331.521ZM88.7112 370.099H89.2112V369.599V339.577V339.077H88.7112H67.2673H66.7673V339.577V369.599V370.099H67.2673H88.7112Z" stroke="#C7C7C7"/>
</g>
<g filter="url(#filter4_d)">
<path d="M164.517 406.45C159.433 401.633 152.567 398.666 145 398.666C137.433 398.666 130.567 401.633 125.483 406.45C125.183 406.75 125 407.166 125 407.633C125 408.1 125.183 408.516 125.483 408.816L129.617 412.95C129.917 413.25 130.333 413.433 130.8 413.433C131.25 413.433 131.667 413.25 131.967 412.966C133.283 411.733 134.783 410.7 136.4 409.883C136.95 409.616 137.333 409.05 137.333 408.383V403.216C139.75 402.416 142.333 402 145 402C147.667 402 150.25 402.416 152.667 403.2V408.366C152.667 409.016 153.05 409.6 153.6 409.866C155.233 410.683 156.717 411.733 158.033 412.95C158.333 413.25 158.75 413.416 159.2 413.416C159.667 413.416 160.083 413.233 160.383 412.933L164.517 408.8C164.817 408.5 165 408.083 165 407.616C165 407.166 164.817 406.75 164.517 406.45ZM134 407.383C132.9 408 131.85 408.716 130.883 409.5L129.1 407.716C130.617 406.466 132.267 405.4 134.017 404.55V407.383H134ZM159.117 409.483C158.133 408.683 157.1 407.983 156 407.366V404.533C157.733 405.383 159.383 406.45 160.9 407.7L159.117 409.483ZM160.267 389.1L157.917 386.75L151.983 392.666L154.333 395.016C154.333 395.016 160.083 389.15 160.267 389.1ZM143.333 382H146.667V390.333H143.333V382ZM135.667 395.016L138.017 392.666L132.1 386.733L129.733 389.1C129.917 389.15 135.667 395.016 135.667 395.016Z" fill="#C7C7C7"/>
<path d="M131.625 412.601L131.623 412.603C131.41 412.804 131.114 412.933 130.8 412.933C130.467 412.933 130.178 412.803 129.97 412.596L125.837 408.463C125.63 408.255 125.5 407.965 125.5 407.633C125.5 407.303 125.628 407.014 125.833 406.807C130.827 402.078 137.569 399.166 145 399.166C152.431 399.166 159.173 402.078 164.167 406.807C164.374 407.016 164.5 407.305 164.5 407.616C164.5 407.949 164.37 408.239 164.163 408.446L160.03 412.579C159.822 412.787 159.533 412.916 159.2 412.916C158.874 412.916 158.587 412.796 158.387 412.596L158.38 412.589L158.373 412.582C157.024 411.336 155.502 410.258 153.824 409.419L153.824 409.419L153.818 409.416C153.438 409.232 153.167 408.821 153.167 408.366V403.2V402.836L152.821 402.724C150.354 401.924 147.719 401.5 145 401.5C142.281 401.5 139.645 401.924 137.176 402.742L136.833 402.855V403.216V408.383C136.833 408.852 136.565 409.247 136.182 409.433L136.182 409.433L136.175 409.437C134.518 410.274 132.978 411.334 131.625 412.601ZM130.53 409.853L130.848 410.172L131.198 409.888C132.11 409.149 133.098 408.471 134.131 407.883H134.517V407.383V404.55V403.751L133.798 404.1C132.011 404.968 130.328 406.056 128.782 407.33L128.357 407.68L128.746 408.07L130.53 409.853ZM158.801 409.871L159.151 410.155L159.47 409.836L161.254 408.053L161.643 407.664L161.218 407.314C159.672 406.039 157.989 404.951 156.22 404.084L155.5 403.731V404.533V407.366V407.659L155.755 407.802C156.831 408.405 157.84 409.089 158.801 409.871ZM154.33 394.306L152.691 392.667L157.916 387.456L159.538 389.078C159.369 389.239 159.155 389.448 158.911 389.689C158.344 390.248 157.607 390.988 156.876 391.725C156.145 392.462 155.42 393.197 154.878 393.748C154.663 393.967 154.477 394.156 154.33 394.306ZM131.089 389.689C130.845 389.448 130.631 389.239 130.462 389.078L132.1 387.44L137.31 392.666L135.67 394.306C135.523 394.156 135.337 393.967 135.122 393.748C134.58 393.197 133.855 392.462 133.124 391.725C132.393 390.988 131.656 390.248 131.089 389.689ZM143.833 382.5H146.167V389.833H143.833V382.5Z" stroke="#C7C7C7"/>
</g>
<g filter="url(#filter5_d)">
<path d="M206.667 4.33284H236.667V0.999512H206.667C204.833 0.999512 203.333 2.49951 203.333 4.33284V22.6662H200V27.6662H223.333V22.6662H206.667V4.33284ZM238.333 7.66618H228.333C227.417 7.66618 226.667 8.41618 226.667 9.33284V25.9995C226.667 26.9162 227.417 27.6662 228.333 27.6662H238.333C239.25 27.6662 240 26.9162 240 25.9995V9.33284C240 8.41618 239.25 7.66618 238.333 7.66618ZM236.667 22.6662H230V10.9995H236.667V22.6662Z" fill="#C7C7C7"/>
<path d="M206.667 3.83284H206.167V4.33284V22.6662V23.1662H206.667H222.833V27.1662H200.5V23.1662H203.333H203.833V22.6662V4.33284C203.833 2.77565 205.109 1.49951 206.667 1.49951H236.167V3.83284H206.667ZM236.667 23.1662H237.167V22.6662V10.9995V10.4995H236.667H230H229.5V10.9995V22.6662V23.1662H230H236.667ZM228.333 8.16618H238.333C238.974 8.16618 239.5 8.69232 239.5 9.33284V25.9995C239.5 26.64 238.974 27.1662 238.333 27.1662H228.333C227.693 27.1662 227.167 26.64 227.167 25.9995V9.33284C227.167 8.69232 227.693 8.16618 228.333 8.16618Z" stroke="#C7C7C7"/>
</g>
<g filter="url(#filter6_d)">
<path d="M91.25 66.0662C90.1167 60.3162 85.0667 55.9995 79 55.9995C74.1833 55.9995 70 58.7328 67.9167 62.7328C62.9 63.2662 59 67.5162 59 72.6662C59 78.1828 63.4833 82.6662 69 82.6662H90.6667C95.2667 82.6662 99 78.9328 99 74.3328C99 69.9328 95.5833 66.3662 91.25 66.0662ZM90.6667 79.3328H69C65.3167 79.3328 62.3333 76.3495 62.3333 72.6662C62.3333 69.2495 64.8833 66.3995 68.2667 66.0495L70.05 65.8662L70.8833 64.2828C72.4667 61.2328 75.5667 59.3328 79 59.3328C83.3667 59.3328 87.1333 62.4328 87.9833 66.7162L88.4833 69.2162L91.0333 69.3995C93.6333 69.5662 95.6667 71.7495 95.6667 74.3328C95.6667 77.0828 93.4167 79.3328 90.6667 79.3328ZM81.4167 65.9995H76.5833V70.9995H72.3333L79 77.6662L85.6667 70.9995H81.4167V65.9995Z" fill="#C7C7C7"/>
<path d="M90.7594 66.1629L90.8335 66.5385L91.2155 66.565C95.2918 66.8472 98.5 70.2007 98.5 74.3328C98.5 78.6567 94.9905 82.1662 90.6667 82.1662H69C63.7595 82.1662 59.5 77.9067 59.5 72.6662C59.5 67.774 63.205 63.7366 67.9695 63.23L68.2362 63.2017L68.3601 62.9638C70.3609 59.1223 74.3773 56.4995 79 56.4995C84.8231 56.4995 89.6714 60.6425 90.7594 66.1629ZM68.2155 65.5521L68.2152 65.5522C64.5742 65.9288 61.8333 68.9962 61.8333 72.6662C61.8333 76.6257 65.0405 79.8328 69 79.8328H90.6667C93.6928 79.8328 96.1667 77.359 96.1667 74.3328C96.1667 71.487 93.9301 69.0852 91.0673 68.9007C91.0666 68.9006 91.066 68.9006 91.0653 68.9005L88.899 68.7448L88.4738 66.6189C87.5774 62.1021 83.6059 58.8328 79 58.8328C75.3787 58.8328 72.1089 60.8379 70.4402 64.0513C70.44 64.0517 70.4398 64.0521 70.4396 64.0525L69.7323 65.3962L68.2155 65.5521ZM76.5833 71.4995H77.0833V70.9995V66.4995H80.9167V70.9995V71.4995H81.4167H84.4596L79 76.9591L73.5404 71.4995H76.5833Z" stroke="#C7C7C7"/>
</g>
<g filter="url(#filter7_d)">
<path d="M313 386H297L293 382H281C278.78 382 277.02 383.78 277.02 386L277 410C277 412.22 278.78 414 281 414H313C315.22 414 317 412.22 317 410V390C317 387.78 315.22 386 313 386ZM313 410H281V386H291.34L295.34 390H313V410ZM297 402H301V406H305V402H309V398H305V394H301V398H297V402Z" fill="#C7C7C7"/>
<path d="M296.646 386.353L296.793 386.5H297H313C314.944 386.5 316.5 388.056 316.5 390V410C316.5 411.943 314.944 413.5 313 413.5H281C279.056 413.5 277.5 411.943 277.5 410C277.5 410 277.5 410 277.5 410L277.52 386V386C277.52 384.052 279.059 382.5 281 382.5H292.793L296.646 386.353ZM313 410.5H313.5V410V390V389.5H313H295.547L291.694 385.646L291.547 385.5H291.34H281H280.5V386V410V410.5H281H313ZM301.5 402V401.5H301H297.5V398.5H301H301.5V398V394.5H304.5V398V398.5H305H308.5V401.5H305H304.5V402V405.5H301.5V402Z" stroke="#C7C7C7"/>
</g>
<g filter="url(#filter8_d)">
<path d="M420.864 303.091V296.318H423.5V303.091C423.5 306.833 420.469 309.863 416.727 309.863C412.985 309.863 409.955 306.833 409.955 303.091V294.909C409.955 292.676 411.767 290.863 414 290.863C416.233 290.863 418.045 292.676 418.045 294.909V302.591H415.409V294.909C415.409 294.124 414.785 293.5 414 293.5C413.215 293.5 412.591 294.124 412.591 294.909V303.091C412.591 305.367 414.451 307.227 416.727 307.227C419.003 307.227 420.864 305.367 420.864 303.091Z" fill="#C7C7C7" stroke="#C7C7C7"/>
<path d="M387.901 280.848L387.136 280.37V281.272V299.454V299.954H387.636H405.318V302.59H387.636C385.913 302.59 384.5 301.178 384.5 299.454C384.5 299.454 384.5 299.454 384.5 299.454L384.518 277.636V277.636C384.518 275.909 385.916 274.5 387.636 274.5H416.727C418.451 274.5 419.864 275.912 419.864 277.636V286.227H417.227V281.272V280.37L416.462 280.848L402.182 289.774L387.901 280.848ZM416.992 278.06L418.471 277.136H416.727H387.636H385.893L387.371 278.06L401.917 287.151L402.182 287.316L402.447 287.151L416.992 278.06Z" fill="#C7C7C7" stroke="#C7C7C7"/>
</g>
<g filter="url(#filter9_d)">
<path d="M233.078 408.998C233.687 408.998 234.279 409.066 234.854 409.184L238.391 404.768C237.629 404.192 230.049 398 218.695 398C207.325 398 199.761 404.192 199 404.768L218.695 429.302L224.618 421.925V417.458C224.618 412.72 228.34 408.998 233.078 408.998ZM237.308 419.996V417.458C237.308 415.089 235.447 413.228 233.078 413.228C230.709 413.228 228.848 415.089 228.848 417.458V419.996C228.002 419.996 227.156 420.842 227.156 421.688V428.456C227.156 429.302 228.002 430.148 228.848 430.148H237.308C238.154 430.148 239 429.302 239 428.456V421.688C239 420.842 238.154 419.996 237.308 419.996ZM235.616 419.996H230.54V417.458C230.54 416.104 231.724 414.92 233.078 414.92C234.431 414.92 235.616 416.104 235.616 417.458V419.996Z" fill="#C7C7C7"/>
<path d="M236.808 419.996V420.496H237.308C237.568 420.496 237.871 420.631 238.118 420.878C238.365 421.126 238.5 421.428 238.5 421.688V428.456C238.5 428.717 238.365 429.019 238.118 429.266C237.871 429.513 237.568 429.648 237.308 429.648H228.848C228.587 429.648 228.285 429.513 228.038 429.266C227.791 429.019 227.656 428.717 227.656 428.456V421.688C227.656 421.428 227.791 421.126 228.038 420.878C228.285 420.631 228.587 420.496 228.848 420.496H229.348V419.996V417.458C229.348 415.365 230.985 413.728 233.078 413.728C235.171 413.728 236.808 415.365 236.808 417.458V419.996ZM235.616 420.496H236.116V419.996V417.458C236.116 415.828 234.708 414.42 233.078 414.42C231.448 414.42 230.04 415.828 230.04 417.458V419.996V420.496H230.54H235.616ZM237.681 404.854L234.652 408.637C234.142 408.548 233.617 408.498 233.078 408.498C228.064 408.498 224.118 412.444 224.118 417.458V421.749L218.695 428.504L199.71 404.853C201.543 403.466 208.594 398.5 218.695 398.5C228.783 398.5 235.847 403.468 237.681 404.854Z" stroke="#C7C7C7"/>
</g>
<g filter="url(#filter10_d)">
<path d="M35.6889 198.261C35.5917 198.027 35.475 197.813 35.3389 197.6C35.0667 197.191 34.6972 196.822 34.2889 196.55C34.075 196.413 33.8611 196.297 33.6278 196.2C33.1611 196.005 32.6556 195.888 32.1111 195.888H30.1667V192H26.2778V195.888H10.7222V192H6.83333V195.888H4.88889C4.07222 195.888 3.33333 196.141 2.71111 196.55C2.30278 196.822 1.93333 197.191 1.66111 197.6C1.525 197.813 1.40833 198.027 1.31111 198.261C1.11667 198.727 1 199.233 1 199.777V227C1 229.138 2.73056 230.888 4.88889 230.888H32.1111C32.6556 230.888 33.1611 230.772 33.6278 230.577C33.8611 230.48 34.075 230.363 34.2889 230.227C34.6972 229.955 35.0667 229.586 35.3389 229.177C35.7472 228.555 36 227.797 36 227V199.777C36 199.233 35.8833 198.727 35.6889 198.261ZM4.88889 227V199.777H32.1111V227H4.88889ZM18.5 215.1C14.5528 215.1 6.83333 217.2 6.83333 222.061V225.055H30.1667V222.08C30.1667 217.2 22.4472 215.1 18.5 215.1ZM11.325 221.166C12.6667 220.077 15.9528 218.988 18.5 218.988C21.0472 218.988 24.3528 220.077 25.675 221.166H11.325ZM18.5 213.388C21.7083 213.388 24.3333 210.763 24.3333 207.555C24.3333 204.347 21.7083 201.722 18.5 201.722C15.2917 201.722 12.6667 204.347 12.6667 207.555C12.6667 210.763 15.2917 213.388 18.5 213.388ZM18.5 205.611C19.5694 205.611 20.4444 206.486 20.4444 207.555C20.4444 208.625 19.5694 209.5 18.5 209.5C17.4306 209.5 16.5556 208.625 16.5556 207.555C16.5556 206.486 17.4306 205.611 18.5 205.611Z" fill="#C7C7C7"/>
<path d="M29.6667 195.888V196.388H30.1667H32.1111C32.5822 196.388 33.0226 196.489 33.4355 196.661L33.6278 196.2L33.4355 196.661C33.6354 196.744 33.8223 196.846 34.0159 196.968C34.3661 197.203 34.6856 197.522 34.92 197.873C35.0429 198.066 35.1441 198.253 35.2273 198.453C35.3994 198.866 35.5 199.306 35.5 199.777V227C35.5 227.691 35.2806 228.354 34.9219 228.901C34.6873 229.253 34.3671 229.573 34.0158 229.808C33.8223 229.931 33.6354 230.032 33.4355 230.116C33.0226 230.288 32.5822 230.388 32.1111 230.388H4.88889C3.00832 230.388 1.5 228.864 1.5 227V199.777C1.5 199.306 1.60062 198.866 1.77265 198.453C1.85595 198.253 1.95715 198.066 2.08004 197.873C2.31505 197.521 2.63558 197.201 2.98695 196.967C3.53523 196.607 4.17938 196.388 4.88889 196.388H6.83333H7.33333V195.888V192.5H10.2222V195.888V196.388H10.7222H26.2778H26.7778V195.888V192.5H29.6667V195.888ZM4.38889 227V227.5H4.88889H32.1111H32.6111V227V199.777V199.277H32.1111H4.88889H4.38889V199.777V227ZM11.0099 220.778L9.91549 221.666H11.325H25.675H27.0687L25.9929 220.78C25.2586 220.176 24.0302 219.608 22.6957 219.192C21.3513 218.773 19.8368 218.488 18.5 218.488C17.1631 218.488 15.6534 218.773 14.3114 219.192C12.9784 219.608 11.7522 220.176 11.0099 220.778ZM7.33333 222.061C7.33333 219.935 9.02097 218.321 11.3982 217.21C13.75 216.111 16.5937 215.6 18.5 215.6C20.4063 215.6 23.2498 216.111 25.6015 217.212C27.9778 218.325 29.6667 219.944 29.6667 222.08V224.555H7.33333V222.061ZM23.8333 207.555C23.8333 210.487 21.4322 212.888 18.5 212.888C15.5678 212.888 13.1667 210.487 13.1667 207.555C13.1667 204.623 15.5678 202.222 18.5 202.222C21.4322 202.222 23.8333 204.623 23.8333 207.555ZM20.9444 207.555C20.9444 206.209 19.8456 205.111 18.5 205.111C17.1544 205.111 16.0556 206.209 16.0556 207.555C16.0556 208.901 17.1544 210 18.5 210C19.8456 210 20.9444 208.901 20.9444 207.555Z" stroke="#C7C7C7"/>
</g>
<g filter="url(#filter11_d)">
<path d="M303.5 30.4995C303.5 34.3734 300.374 37.4995 296.5 37.4995C292.626 37.4995 289.5 34.3734 289.5 30.4995V15.4995C289.5 11.6257 292.626 8.49951 296.5 8.49951C300.374 8.49951 303.5 11.6257 303.5 15.4995V30.4995Z" fill="#C7C7C7" stroke="#C7C7C7"/>
<path d="M294.5 47.7995V47.3666L294.072 47.3047C285.998 46.1376 279.748 39.3432 279.507 30.9995H283.509C283.772 37.9442 289.491 43.4995 296.5 43.4995C303.509 43.4995 309.228 37.9442 309.491 30.9995H313.493C313.252 39.3432 307.002 46.1376 298.928 47.3047L298.5 47.3666V47.7995V54.9995H294.5V47.7995Z" fill="#C7C7C7" stroke="#C7C7C7"/>
</g>
<g filter="url(#filter12_d)">
<path d="M39.0551 130.518L32.9398 125.927V143.972L39.0551 139.38L44.9699 134.949L39.0551 130.518ZM39.0551 130.518L32.9398 125.927V143.972L39.0551 139.38L44.9699 134.949L39.0551 130.518ZM39.0551 130.518L32.9398 125.927V143.972L39.0551 139.38L44.9699 134.949L39.0551 130.518ZM34.9449 119.05V115C30.9148 115.401 27.2456 117.005 24.2782 119.431L27.1253 122.298C29.3509 120.573 32.0175 119.411 34.9449 119.05ZM24.2982 125.125L21.4311 122.278C19.005 125.245 17.401 128.914 17 132.944H21.0501C21.411 130.017 22.5739 127.35 24.2982 125.125ZM21.0501 136.954H17C17.401 140.984 19.005 144.654 21.4311 147.621L24.2982 144.754C22.5739 142.548 21.411 139.882 21.0501 136.954ZM24.2782 150.468C27.2456 152.894 30.9348 154.498 34.9449 154.899V150.849C32.0175 150.488 29.3509 149.325 27.1253 147.601L24.2782 150.468ZM57 134.949C57 145.295 49.1404 153.837 39.0551 154.899V150.849C46.9148 149.807 52.99 143.07 52.99 134.949C52.99 126.829 46.9148 120.092 39.0551 119.05V115C49.1404 116.062 57 124.604 57 134.949Z" fill="#C7C7C7"/>
<path d="M38.7549 130.918L38.7554 130.918L44.136 134.949L38.7554 138.98L38.7549 138.981L33.4398 142.971V126.927L38.7549 130.918ZM25.0265 119.475C27.7032 117.407 30.9244 116.012 34.4449 115.56V118.614C31.7482 119.021 29.2787 120.09 27.1726 121.636L25.0265 119.475ZM17.5601 132.444C18.012 128.924 19.4079 125.703 21.475 123.026L23.6363 125.172C22.0902 127.278 21.0215 129.748 20.6141 132.444H17.5601ZM21.4738 146.871C19.4073 144.195 18.0119 140.974 17.5601 137.454H20.6141C21.0213 140.15 22.0895 142.619 23.636 144.709L21.4738 146.871ZM34.4449 151.285V154.339C30.9397 153.887 27.7039 152.491 25.0265 150.424L27.1726 148.263C29.2787 149.809 31.7482 150.878 34.4449 151.285ZM56.5 134.949C56.5 144.847 49.1217 153.052 39.5551 154.336V151.281C47.4479 150.02 53.49 143.174 53.49 134.949C53.49 126.725 47.4479 119.879 39.5551 118.617V115.563C49.1217 116.847 56.5 125.052 56.5 134.949Z" stroke="#C7C7C7"/>
</g>
<g filter="url(#filter13_d)">
<path d="M146.455 27.545C150.473 27.545 153.727 24.2904 153.727 20.2722C153.727 16.2541 150.473 12.9995 146.455 12.9995C142.436 12.9995 139.182 16.2541 139.182 20.2722C139.182 24.2904 142.436 27.545 146.455 27.545ZM146.455 16.6359C148.455 16.6359 150.091 18.2722 150.091 20.2722C150.091 22.2722 148.455 23.9086 146.455 23.9086C144.455 23.9086 142.818 22.2722 142.818 20.2722C142.818 18.2722 144.455 16.6359 146.455 16.6359ZM146.455 31.1813C141.6 31.1813 131.909 33.6177 131.909 38.4541V42.0904H161V38.4541C161 33.6177 151.309 31.1813 146.455 31.1813ZM135.545 38.4541C135.945 37.145 141.564 34.8177 146.455 34.8177C151.364 34.8177 157 37.1631 157.364 38.4541H135.545ZM130.091 32.9995V27.545H135.545V23.9086H130.091V18.4541H126.455V23.9086H121V27.545H126.455V32.9995H130.091Z" fill="#C7C7C7"/>
<path d="M135.067 38.3079L134.87 38.9541H135.545H157.364H158.024L157.845 38.3185C157.763 38.0281 157.558 37.7745 157.335 37.5638C157.103 37.3444 156.803 37.1264 156.457 36.9147C155.764 36.4907 154.839 36.0631 153.784 35.6816C151.674 34.919 148.98 34.3177 146.455 34.3177C143.939 34.3177 141.253 34.9144 139.146 35.6746C138.092 36.055 137.167 36.4821 136.471 36.9068C136.123 37.1188 135.821 37.3372 135.586 37.5572C135.36 37.7691 135.155 38.0212 135.067 38.3079ZM130.091 27.045H129.591V27.545V32.4995H126.955V27.545V27.045H126.455H121.5V24.4086H126.455H126.955V23.9086V18.9541H129.591V23.9086V24.4086H130.091H135.045V27.045H130.091ZM153.227 20.2722C153.227 24.0143 150.197 27.045 146.455 27.045C142.713 27.045 139.682 24.0143 139.682 20.2722C139.682 16.5302 142.713 13.4995 146.455 13.4995C150.197 13.4995 153.227 16.5302 153.227 20.2722ZM150.591 20.2722C150.591 17.9961 148.731 16.1359 146.455 16.1359C144.178 16.1359 142.318 17.9961 142.318 20.2722C142.318 22.5484 144.178 24.4086 146.455 24.4086C148.731 24.4086 150.591 22.5484 150.591 20.2722ZM132.409 38.4541C132.409 37.4286 132.919 36.4934 133.838 35.6448C134.761 34.793 136.063 34.0628 137.547 33.4682C140.517 32.2787 144.09 31.6813 146.455 31.6813C148.819 31.6813 152.392 32.2787 155.362 33.4682C156.846 34.0628 158.148 34.793 159.071 35.6448C159.99 36.4934 160.5 37.4286 160.5 38.4541V41.5904H132.409V38.4541Z" stroke="#C7C7C7"/>
</g>
<g filter="url(#filter14_d)">
<path d="M418 194C406.96 194 398 202.96 398 214C398 225.04 406.96 234 418 234C429.04 234 438 225.04 438 214C438 202.96 429.04 194 418 194ZM402 214C402 212.78 402.16 211.58 402.42 210.44L411.98 220V222C411.98 224.2 413.78 226 415.98 226V229.86C408.12 228.86 402 222.14 402 214ZM429.78 224.8C429.26 223.18 427.78 222 425.98 222H423.98V216C423.98 214.9 423.08 214 421.98 214H409.98V210H413.98C415.08 210 415.98 209.1 415.98 208V204H419.98C422.18 204 423.98 202.2 423.98 200V199.18C429.84 201.54 434 207.3 434 214C434 218.16 432.38 221.96 429.78 224.8Z" fill="#C7C7C7"/>
<path d="M402.774 210.086L402.134 209.446L401.933 210.328C401.666 211.499 401.5 212.736 401.5 214C401.5 222.396 407.812 229.324 415.917 230.356L416.48 230.427V229.86V226V225.5H415.98C414.056 225.5 412.48 223.923 412.48 222V220V219.792L412.334 219.646L402.774 210.086ZM429.304 224.952L429.567 225.772L430.149 225.137C432.828 222.21 434.5 218.291 434.5 214C434.5 207.088 430.209 201.149 424.167 198.716L423.48 198.439V199.18V200C423.48 201.923 421.904 203.5 419.98 203.5H415.98H415.48V204V208C415.48 208.823 414.804 209.5 413.98 209.5H409.98H409.48V210V214V214.5H409.98H421.98C422.804 214.5 423.48 215.176 423.48 216V222V222.5H423.98H425.98C427.55 222.5 428.846 223.527 429.304 224.952ZM398.5 214C398.5 203.236 407.236 194.5 418 194.5C428.764 194.5 437.5 203.236 437.5 214C437.5 224.763 428.764 233.5 418 233.5C407.236 233.5 398.5 224.763 398.5 214Z" stroke="#C7C7C7"/>
</g>
<g filter="url(#filter15_d)">
<path d="M384.614 66.2971L376.616 70.0296L371.439 64.8529V61.7425L376.616 56.5658L384.614 60.2984C385.458 60.6983 386.436 60.3206 386.836 59.4985C387.236 58.6543 386.858 57.6767 386.036 57.2768L377.327 53.211C376.483 52.8111 375.483 52.9888 374.816 53.6554L370.95 57.5212C370.55 56.988 369.928 56.6325 369.217 56.6325C367.995 56.6325 366.996 57.6323 366.996 58.8542V61.076H359.931C358.997 58.4988 356.554 56.6325 353.665 56.6325C349.977 56.6325 347 59.6096 347 63.2977C347 65.7416 348.333 67.8523 350.288 69.0298L356.065 87.7369H353.665C351.221 87.7369 349.222 89.7365 349.222 92.1804V94.4021H378.104V92.1804C378.104 89.7365 376.105 87.7369 373.661 87.7369H370.062L359.02 67.2302C359.397 66.697 359.708 66.1416 359.931 65.5195H366.996V67.7412C366.996 68.9632 367.995 69.963 369.217 69.963C369.928 69.963 370.55 69.6075 370.95 69.0743L374.816 72.9401C375.483 73.6066 376.483 73.7844 377.327 73.3844L386.036 69.3187C386.88 68.9187 387.236 67.9412 386.836 67.0969C386.436 66.2749 385.458 65.8972 384.614 66.2971ZM353.665 65.5195C352.443 65.5195 351.443 64.5197 351.443 63.2977C351.443 62.0758 352.443 61.076 353.665 61.076C354.887 61.076 355.887 62.0758 355.887 63.2977C355.887 64.5197 354.887 65.5195 353.665 65.5195ZM365.018 87.7369H360.708L355.243 69.963H355.465L365.018 87.7369Z" fill="#C7C7C7"/>
<path d="M384.826 66.7502L384.828 66.7489C385.411 66.4727 386.098 66.7268 386.385 67.3133C386.663 67.9041 386.419 68.5831 385.823 68.8662C385.823 68.8664 385.822 68.8666 385.822 68.8668L377.115 72.9314L377.113 72.9326C376.462 73.2407 375.689 73.1059 375.17 72.5865L371.304 68.7207L370.896 68.3131L370.55 68.7743C370.235 69.1952 369.755 69.463 369.217 69.463C368.272 69.463 367.496 68.687 367.496 67.7412V65.5195V65.0195H366.996H359.931H359.578L359.46 65.3513C359.256 65.9215 358.969 66.4366 358.612 66.9412L358.432 67.1942L358.579 67.4673L369.621 87.974L369.763 88.2369H370.062H373.661C375.829 88.2369 377.604 90.0126 377.604 92.1804V93.9021H349.722V92.1804C349.722 90.0126 351.497 88.2369 353.665 88.2369H356.065H356.742L356.542 87.5894L350.766 68.8823L350.71 68.7L350.546 68.6015C348.729 67.5072 347.5 65.5527 347.5 63.2977C347.5 59.8858 350.253 57.1325 353.665 57.1325C356.331 57.1325 358.595 58.8551 359.46 61.2462L359.58 61.576H359.931H366.996H367.496V61.076V58.8542C367.496 57.9084 368.272 57.1325 369.217 57.1325C369.755 57.1325 370.235 57.4002 370.55 57.8212L370.896 58.2824L371.304 57.8747L375.17 54.0089C375.689 53.4896 376.462 53.3548 377.113 53.6629L377.115 53.6641L385.821 57.728C386.406 58.0147 386.659 58.6997 386.385 59.2821C386.098 59.8686 385.411 60.1228 384.828 59.8465L384.826 59.8453L376.827 56.1127L376.51 55.9646L376.262 56.2123L371.086 61.3889L370.939 61.5354V61.7425V64.8529V65.06L371.086 65.2065L376.262 70.3832L376.51 70.6308L376.827 70.4827L384.826 66.7502ZM365.018 88.2369H365.855L365.459 87.5002L355.905 69.7262L355.764 69.463H355.465H355.243H354.566L354.765 70.1099L360.23 87.8839L360.339 88.2369H360.708H365.018ZM350.943 63.2977C350.943 64.7958 352.167 66.0195 353.665 66.0195C355.163 66.0195 356.387 64.7958 356.387 63.2977C356.387 61.7996 355.163 60.576 353.665 60.576C352.167 60.576 350.943 61.7996 350.943 63.2977Z" stroke="#C7C7C7"/>
</g>
<defs>
<filter id="filter0_d" x="339" y="337" width="48" height="48" filterUnits="userSpaceOnUse" color-interpolation-filters="sRGB">
<feFlood flood-opacity="0" result="BackgroundImageFix"/>
<feColorMatrix in="SourceAlpha" type="matrix" values="0 0 0 0 0 0 0 0 0 0 0 0 0 0 0 0 0 0 127 0"/>
<feOffset dx="3" dy="3"/>
<feGaussianBlur stdDeviation="2"/>
<feColorMatrix type="matrix" values="0 0 0 0 0 0 0 0 0 0 0 0 0 0 0 0 0 0 0.25 0"/>
<feBlend mode="normal" in2="BackgroundImageFix" result="effect1_dropShadow"/>
<feBlend mode="normal" in="SourceGraphic" in2="effect1_dropShadow" result="shape"/>
</filter>
<filter id="filter1_d" x="16" y="277" width="48" height="44" filterUnits="userSpaceOnUse" color-interpolation-filters="sRGB">
<feFlood flood-opacity="0" result="BackgroundImageFix"/>
<feColorMatrix in="SourceAlpha" type="matrix" values="0 0 0 0 0 0 0 0 0 0 0 0 0 0 0 0 0 0 127 0"/>
<feOffset dx="3" dy="3"/>
<feGaussianBlur stdDeviation="2"/>
<feColorMatrix type="matrix" values="0 0 0 0 0 0 0 0 0 0 0 0 0 0 0 0 0 0 0.25 0"/>
<feBlend mode="normal" in2="BackgroundImageFix" result="effect1_dropShadow"/>
<feBlend mode="normal" in="SourceGraphic" in2="effect1_dropShadow" result="shape"/>
</filter>
<filter id="filter2_d" x="379" y="124" width="48" height="34.6667" filterUnits="userSpaceOnUse" color-interpolation-filters="sRGB">
<feFlood flood-opacity="0" result="BackgroundImageFix"/>
<feColorMatrix in="SourceAlpha" type="matrix" values="0 0 0 0 0 0 0 0 0 0 0 0 0 0 0 0 0 0 127 0"/>
<feOffset dx="3" dy="3"/>
<feGaussianBlur stdDeviation="2"/>
<feColorMatrix type="matrix" values="0 0 0 0 0 0 0 0 0 0 0 0 0 0 0 0 0 0 0.25 0"/>
<feBlend mode="normal" in2="BackgroundImageFix" result="effect1_dropShadow"/>
<feBlend mode="normal" in="SourceGraphic" in2="effect1_dropShadow" result="shape"/>
</filter>
<filter id="filter3_d" x="62" y="330" width="38" height="55.1766" filterUnits="userSpaceOnUse" color-interpolation-filters="sRGB">
<feFlood flood-opacity="0" result="BackgroundImageFix"/>
<feColorMatrix in="SourceAlpha" type="matrix" values="0 0 0 0 0 0 0 0 0 0 0 0 0 0 0 0 0 0 127 0"/>
<feOffset dx="3" dy="3"/>
<feGaussianBlur stdDeviation="2"/>
<feColorMatrix type="matrix" values="0 0 0 0 0 0 0 0 0 0 0 0 0 0 0 0 0 0 0.25 0"/>
<feBlend mode="normal" in2="BackgroundImageFix" result="effect1_dropShadow"/>
<feBlend mode="normal" in="SourceGraphic" in2="effect1_dropShadow" result="shape"/>
</filter>
<filter id="filter4_d" x="124" y="381" width="48" height="39.4333" filterUnits="userSpaceOnUse" color-interpolation-filters="sRGB">
<feFlood flood-opacity="0" result="BackgroundImageFix"/>
<feColorMatrix in="SourceAlpha" type="matrix" values="0 0 0 0 0 0 0 0 0 0 0 0 0 0 0 0 0 0 127 0"/>
<feOffset dx="3" dy="3"/>
<feGaussianBlur stdDeviation="2"/>
<feColorMatrix type="matrix" values="0 0 0 0 0 0 0 0 0 0 0 0 0 0 0 0 0 0 0.25 0"/>
<feBlend mode="normal" in2="BackgroundImageFix" result="effect1_dropShadow"/>
<feBlend mode="normal" in="SourceGraphic" in2="effect1_dropShadow" result="shape"/>
</filter>
<filter id="filter5_d" x="199" y="-0.000488281" width="48" height="34.6667" filterUnits="userSpaceOnUse" color-interpolation-filters="sRGB">
<feFlood flood-opacity="0" result="BackgroundImageFix"/>
<feColorMatrix in="SourceAlpha" type="matrix" values="0 0 0 0 0 0 0 0 0 0 0 0 0 0 0 0 0 0 127 0"/>
<feOffset dx="3" dy="3"/>
<feGaussianBlur stdDeviation="2"/>
<feColorMatrix type="matrix" values="0 0 0 0 0 0 0 0 0 0 0 0 0 0 0 0 0 0 0.25 0"/>
<feBlend mode="normal" in2="BackgroundImageFix" result="effect1_dropShadow"/>
<feBlend mode="normal" in="SourceGraphic" in2="effect1_dropShadow" result="shape"/>
</filter>
<filter id="filter6_d" x="58" y="54.9995" width="48" height="34.6667" filterUnits="userSpaceOnUse" color-interpolation-filters="sRGB">
<feFlood flood-opacity="0" result="BackgroundImageFix"/>
<feColorMatrix in="SourceAlpha" type="matrix" values="0 0 0 0 0 0 0 0 0 0 0 0 0 0 0 0 0 0 127 0"/>
<feOffset dx="3" dy="3"/>
<feGaussianBlur stdDeviation="2"/>
<feColorMatrix type="matrix" values="0 0 0 0 0 0 0 0 0 0 0 0 0 0 0 0 0 0 0.25 0"/>
<feBlend mode="normal" in2="BackgroundImageFix" result="effect1_dropShadow"/>
<feBlend mode="normal" in="SourceGraphic" in2="effect1_dropShadow" result="shape"/>
</filter>
<filter id="filter7_d" x="276" y="381" width="48" height="40" filterUnits="userSpaceOnUse" color-interpolation-filters="sRGB">
<feFlood flood-opacity="0" result="BackgroundImageFix"/>
<feColorMatrix in="SourceAlpha" type="matrix" values="0 0 0 0 0 0 0 0 0 0 0 0 0 0 0 0 0 0 127 0"/>
<feOffset dx="3" dy="3"/>
<feGaussianBlur stdDeviation="2"/>
<feColorMatrix type="matrix" values="0 0 0 0 0 0 0 0 0 0 0 0 0 0 0 0 0 0 0.25 0"/>
<feBlend mode="normal" in2="BackgroundImageFix" result="effect1_dropShadow"/>
<feBlend mode="normal" in="SourceGraphic" in2="effect1_dropShadow" result="shape"/>
</filter>
<filter id="filter8_d" x="383" y="273" width="48" height="44.3638" filterUnits="userSpaceOnUse" color-interpolation-filters="sRGB">
<feFlood flood-opacity="0" result="BackgroundImageFix"/>
<feColorMatrix in="SourceAlpha" type="matrix" values="0 0 0 0 0 0 0 0 0 0 0 0 0 0 0 0 0 0 127 0"/>
<feOffset dx="3" dy="3"/>
<feGaussianBlur stdDeviation="2"/>
<feColorMatrix type="matrix" values="0 0 0 0 0 0 0 0 0 0 0 0 0 0 0 0 0 0 0.25 0"/>
<feBlend mode="normal" in2="BackgroundImageFix" result="effect1_dropShadow"/>
<feBlend mode="normal" in="SourceGraphic" in2="effect1_dropShadow" result="shape"/>
</filter>
<filter id="filter9_d" x="198" y="397" width="48" height="40.1489" filterUnits="userSpaceOnUse" color-interpolation-filters="sRGB">
<feFlood flood-opacity="0" result="BackgroundImageFix"/>
<feColorMatrix in="SourceAlpha" type="matrix" values="0 0 0 0 0 0 0 0 0 0 0 0 0 0 0 0 0 0 127 0"/>
<feOffset dx="3" dy="3"/>
<feGaussianBlur stdDeviation="2"/>
<feColorMatrix type="matrix" values="0 0 0 0 0 0 0 0 0 0 0 0 0 0 0 0 0 0 0.25 0"/>
<feBlend mode="normal" in2="BackgroundImageFix" result="effect1_dropShadow"/>
<feBlend mode="normal" in="SourceGraphic" in2="effect1_dropShadow" result="shape"/>
</filter>
<filter id="filter10_d" x="0" y="191" width="43" height="46.8889" filterUnits="userSpaceOnUse" color-interpolation-filters="sRGB">
<feFlood flood-opacity="0" result="BackgroundImageFix"/>
<feColorMatrix in="SourceAlpha" type="matrix" values="0 0 0 0 0 0 0 0 0 0 0 0 0 0 0 0 0 0 127 0"/>
<feOffset dx="3" dy="3"/>
<feGaussianBlur stdDeviation="2"/>
<feColorMatrix type="matrix" values="0 0 0 0 0 0 0 0 0 0 0 0 0 0 0 0 0 0 0.25 0"/>
<feBlend mode="normal" in2="BackgroundImageFix" result="effect1_dropShadow"/>
<feBlend mode="normal" in="SourceGraphic" in2="effect1_dropShadow" result="shape"/>
</filter>
<filter id="filter11_d" x="278" y="6.99951" width="43" height="55.5" filterUnits="userSpaceOnUse" color-interpolation-filters="sRGB">
<feFlood flood-opacity="0" result="BackgroundImageFix"/>
<feColorMatrix in="SourceAlpha" type="matrix" values="0 0 0 0 0 0 0 0 0 0 0 0 0 0 0 0 0 0 127 0"/>
<feOffset dx="3" dy="3"/>
<feGaussianBlur stdDeviation="2"/>
<feColorMatrix type="matrix" values="0 0 0 0 0 0 0 0 0 0 0 0 0 0 0 0 0 0 0.25 0"/>
<feBlend mode="normal" in2="BackgroundImageFix" result="effect1_dropShadow"/>
<feBlend mode="normal" in="SourceGraphic" in2="effect1_dropShadow" result="shape"/>
</filter>
<filter id="filter12_d" x="16" y="114" width="48" height="47.8998" filterUnits="userSpaceOnUse" color-interpolation-filters="sRGB">
<feFlood flood-opacity="0" result="BackgroundImageFix"/>
<feColorMatrix in="SourceAlpha" type="matrix" values="0 0 0 0 0 0 0 0 0 0 0 0 0 0 0 0 0 0 127 0"/>
<feOffset dx="3" dy="3"/>
<feGaussianBlur stdDeviation="2"/>
<feColorMatrix type="matrix" values="0 0 0 0 0 0 0 0 0 0 0 0 0 0 0 0 0 0 0.25 0"/>
<feBlend mode="normal" in2="BackgroundImageFix" result="effect1_dropShadow"/>
<feBlend mode="normal" in="SourceGraphic" in2="effect1_dropShadow" result="shape"/>
</filter>
<filter id="filter13_d" x="120" y="11.9995" width="48" height="37.0909" filterUnits="userSpaceOnUse" color-interpolation-filters="sRGB">
<feFlood flood-opacity="0" result="BackgroundImageFix"/>
<feColorMatrix in="SourceAlpha" type="matrix" values="0 0 0 0 0 0 0 0 0 0 0 0 0 0 0 0 0 0 127 0"/>
<feOffset dx="3" dy="3"/>
<feGaussianBlur stdDeviation="2"/>
<feColorMatrix type="matrix" values="0 0 0 0 0 0 0 0 0 0 0 0 0 0 0 0 0 0 0.25 0"/>
<feBlend mode="normal" in2="BackgroundImageFix" result="effect1_dropShadow"/>
<feBlend mode="normal" in="SourceGraphic" in2="effect1_dropShadow" result="shape"/>
</filter>
<filter id="filter14_d" x="397" y="193" width="48" height="48" filterUnits="userSpaceOnUse" color-interpolation-filters="sRGB">
<feFlood flood-opacity="0" result="BackgroundImageFix"/>
<feColorMatrix in="SourceAlpha" type="matrix" values="0 0 0 0 0 0 0 0 0 0 0 0 0 0 0 0 0 0 127 0"/>
<feOffset dx="3" dy="3"/>
<feGaussianBlur stdDeviation="2"/>
<feColorMatrix type="matrix" values="0 0 0 0 0 0 0 0 0 0 0 0 0 0 0 0 0 0 0.25 0"/>
<feBlend mode="normal" in2="BackgroundImageFix" result="effect1_dropShadow"/>
<feBlend mode="normal" in="SourceGraphic" in2="effect1_dropShadow" result="shape"/>
</filter>
<filter id="filter15_d" x="346" y="51.9995" width="48" height="49.4026" filterUnits="userSpaceOnUse" color-interpolation-filters="sRGB">
<feFlood flood-opacity="0" result="BackgroundImageFix"/>
<feColorMatrix in="SourceAlpha" type="matrix" values="0 0 0 0 0 0 0 0 0 0 0 0 0 0 0 0 0 0 127 0"/>
<feOffset dx="3" dy="3"/>
<feGaussianBlur stdDeviation="2"/>
<feColorMatrix type="matrix" values="0 0 0 0 0 0 0 0 0 0 0 0 0 0 0 0 0 0 0.25 0"/>
<feBlend mode="normal" in2="BackgroundImageFix" result="effect1_dropShadow"/>
<feBlend mode="normal" in="SourceGraphic" in2="effect1_dropShadow" result="shape"/>
</filter>
</defs>
</svg>
