<svg width="160" height="230" viewBox="0 0 160 230" fill="none" xmlns="http://www.w3.org/2000/svg">
<rect x="1" y="1" width="158" height="228" rx="49" stroke="#F8F8FF" stroke-width="2"/>
<path d="M59.0909 151.556V151.056H58.5909H32.4545C26.9802 151.056 22.5 146.579 22.5 141.111V78.4444C22.5 72.9766 26.9802 68.5 32.4545 68.5H126.545C132.02 68.5 136.5 72.9766 136.5 78.4444V141.111C136.5 146.579 132.02 151.056 126.545 151.056H100.409H99.9091V151.556V161.5H59.0909V151.556ZM126.545 141.611H127.045V141.111V78.4444V77.9444H126.545H32.4545H31.9545V78.4444V141.111V141.611H32.4545H126.545ZM64.3182 89.7501L99.4006 109.778L64.3182 129.805V89.7501Z" stroke="url(#paint0_linear)"/>
<path fill-rule="evenodd" clip-rule="evenodd" d="M136.891 30.0019C138.58 29.9459 140.042 31.1386 141.684 31.5424C143.536 31.9977 145.542 31.7243 147.265 32.5518C149.117 33.4414 151.67 34.4251 151.971 36.4837C152.325 38.8999 149.301 40.6047 148.792 42.992C148.453 44.5848 149.584 46.1461 149.564 47.7757C149.543 49.6081 149.64 51.6043 148.672 53.1506C147.709 54.6893 145.966 55.617 144.274 56.2263C142.657 56.8085 140.798 55.9821 139.183 56.5679C137.224 57.2782 136.039 59.697 133.975 59.9607C132.021 60.2104 129.961 59.2387 128.465 57.9372C126.973 56.6389 126.765 54.379 125.661 52.728C124.609 51.1546 122.514 50.2439 122.082 48.393C121.647 46.5273 123.07 44.7336 123.354 42.8381C123.623 41.0432 123.213 39.1911 123.722 37.4508C124.261 35.6081 124.813 33.4674 126.401 32.4218C128.049 31.3362 130.302 32.2983 132.217 31.8564C133.862 31.477 135.205 30.0578 136.891 30.0019Z" fill="#F8F8FF" stroke="url(#paint1_linear)" stroke-width="2"/>
<defs>
<linearGradient id="paint0_linear" x1="98.0331" y1="162" x2="49.1952" y2="91.6357" gradientUnits="userSpaceOnUse">
<stop offset="0.0572917" stop-color="#20E4FF"/>
<stop offset="1" stop-color="#8B30FF"/>
</linearGradient>
<linearGradient id="paint1_linear" x1="141.835" y1="60" x2="125.417" y2="40.6656" gradientUnits="userSpaceOnUse">
<stop offset="0.0572917" stop-color="#20E4FF"/>
<stop offset="1" stop-color="#8B30FF"/>
</linearGradient>
</defs>
</svg>
