<svg width="58" height="43" viewBox="0 0 58 43" fill="none" xmlns="http://www.w3.org/2000/svg">
<path d="M18.4348 8C20.3478 8 21.913 6.2 21.913 4C21.913 1.8 20.3478 0 18.4348 0C16.5217 0 14.9565 1.8 14.9565 4C14.9565 6.2 16.5217 8 18.4348 8ZM12.1739 35.8L13.913 27L17.5652 31V43H21.0435V28L17.3913 24L18.4348 18C20.6957 21 24.1739 23 28 23V19C24.6957 19 21.913 17 20.5217 14.2L18.7826 11C18.087 9.8 17.0435 9 15.8261 9C15.3043 9 14.9565 9.2 14.4348 9.2L5.3913 13.6V23H8.86956V16.2L12 14.8L9.21739 31L0.695652 29L0 33L12.1739 35.8Z" fill="#F8F8FF"/>
<path d="M54.625 4V36H34.375V4H54.625ZM54.625 0H34.375C32.5187 0 31 1.8 31 4V40H58V4C58 1.8 56.4813 0 54.625 0ZM50.4062 17C49.0056 17 47.875 18.34 47.875 20C47.875 21.66 49.0056 23 50.4062 23C51.8069 23 52.9375 21.66 52.9375 20C52.9375 18.34 51.8069 17 50.4062 17Z" fill="url(#paint0_linear)"/>
<defs>
<linearGradient id="paint0_linear" x1="48.8512" y1="40" x2="27.2396" y2="22.8203" gradientUnits="userSpaceOnUse">
<stop offset="0.0572917" stop-color="#20E4FF"/>
<stop offset="1" stop-color="#8B30FF"/>
</linearGradient>
</defs>
</svg>
