<svg width="264" height="262" viewBox="0 0 264 262" fill="none" xmlns="http://www.w3.org/2000/svg">
<path d="M241.5 128.5C241.5 190.91 191.13 241.5 129 241.5C66.87 241.5 16.5 190.91 16.5 128.5C16.5 66.0897 66.87 15.5 129 15.5C191.13 15.5 241.5 66.0897 241.5 128.5Z" stroke="#C7C7C7"/>
<g filter="url(#filter0_d)">
<mask id="path-2-inside-1" fill="white">
<path d="M253.461 130.932C253.523 130.438 253.569 129.945 253.569 129.42C253.569 128.896 253.523 128.403 253.461 127.909L256.715 125.365C257.008 125.133 257.085 124.717 256.9 124.378L253.816 119.042C253.677 118.795 253.415 118.657 253.137 118.657C253.045 118.657 252.952 118.672 252.875 118.703L249.035 120.245C248.233 119.628 247.37 119.119 246.429 118.734L245.843 114.647C245.797 114.277 245.473 114 245.088 114H238.919C238.534 114 238.21 114.277 238.164 114.647L237.578 118.734C236.637 119.119 235.773 119.644 234.972 120.245L231.132 118.703C231.039 118.672 230.947 118.657 230.854 118.657C230.592 118.657 230.33 118.795 230.191 119.042L227.107 124.378C226.906 124.717 226.999 125.133 227.292 125.365L230.546 127.909C230.484 128.403 230.438 128.911 230.438 129.42C230.438 129.929 230.484 130.438 230.546 130.932L227.292 133.476C226.999 133.707 226.922 134.124 227.107 134.463L230.191 139.799C230.33 140.045 230.592 140.184 230.87 140.184C230.962 140.184 231.055 140.169 231.132 140.138L234.972 138.596C235.773 139.213 236.637 139.721 237.578 140.107L238.164 144.193C238.21 144.564 238.534 144.841 238.919 144.841H245.088C245.473 144.841 245.797 144.564 245.843 144.193L246.429 140.107C247.37 139.721 248.233 139.197 249.035 138.596L252.875 140.138C252.968 140.169 253.06 140.184 253.153 140.184C253.415 140.184 253.677 140.045 253.816 139.799L256.9 134.463C257.085 134.124 257.008 133.707 256.715 133.476L253.461 130.932ZM250.408 128.295C250.469 128.773 250.485 129.096 250.485 129.42C250.485 129.744 250.454 130.083 250.408 130.546L250.192 132.289L251.564 133.368L253.23 134.663L252.15 136.529L250.192 135.743L248.588 135.095L247.2 136.144C246.537 136.637 245.905 137.007 245.273 137.269L243.638 137.933L243.391 139.675L243.083 141.757H240.924L240.631 139.675L240.384 137.933L238.75 137.269C238.087 136.992 237.47 136.637 236.853 136.175L235.45 135.095L233.815 135.758L231.857 136.545L230.777 134.679L232.443 133.383L233.815 132.304L233.599 130.561C233.553 130.083 233.522 129.729 233.522 129.42C233.522 129.112 233.553 128.757 233.599 128.295L233.815 126.552L232.443 125.473L230.777 124.177L231.857 122.311L233.815 123.098L235.419 123.745L236.807 122.697C237.47 122.203 238.102 121.833 238.734 121.571L240.369 120.908L240.616 119.165L240.924 117.084H243.067L243.36 119.165L243.607 120.908L245.242 121.571C245.905 121.849 246.522 122.203 247.139 122.666L248.542 123.745L250.176 123.082L252.135 122.296L253.214 124.162L251.564 125.473L250.192 126.552L250.408 128.295ZM242.003 123.252C238.595 123.252 235.835 126.012 235.835 129.42C235.835 132.828 238.595 135.589 242.003 135.589C245.411 135.589 248.172 132.828 248.172 129.42C248.172 126.012 245.411 123.252 242.003 123.252ZM242.003 132.504C240.307 132.504 238.919 131.117 238.919 129.42C238.919 127.724 240.307 126.336 242.003 126.336C243.7 126.336 245.088 127.724 245.088 129.42C245.088 131.117 243.7 132.504 242.003 132.504Z"/>
</mask>
<path d="M253.461 130.932C253.523 130.438 253.569 129.945 253.569 129.42C253.569 128.896 253.523 128.403 253.461 127.909L256.715 125.365C257.008 125.133 257.085 124.717 256.9 124.378L253.816 119.042C253.677 118.795 253.415 118.657 253.137 118.657C253.045 118.657 252.952 118.672 252.875 118.703L249.035 120.245C248.233 119.628 247.37 119.119 246.429 118.734L245.843 114.647C245.797 114.277 245.473 114 245.088 114H238.919C238.534 114 238.21 114.277 238.164 114.647L237.578 118.734C236.637 119.119 235.773 119.644 234.972 120.245L231.132 118.703C231.039 118.672 230.947 118.657 230.854 118.657C230.592 118.657 230.33 118.795 230.191 119.042L227.107 124.378C226.906 124.717 226.999 125.133 227.292 125.365L230.546 127.909C230.484 128.403 230.438 128.911 230.438 129.42C230.438 129.929 230.484 130.438 230.546 130.932L227.292 133.476C226.999 133.707 226.922 134.124 227.107 134.463L230.191 139.799C230.33 140.045 230.592 140.184 230.87 140.184C230.962 140.184 231.055 140.169 231.132 140.138L234.972 138.596C235.773 139.213 236.637 139.721 237.578 140.107L238.164 144.193C238.21 144.564 238.534 144.841 238.919 144.841H245.088C245.473 144.841 245.797 144.564 245.843 144.193L246.429 140.107C247.37 139.721 248.233 139.197 249.035 138.596L252.875 140.138C252.968 140.169 253.06 140.184 253.153 140.184C253.415 140.184 253.677 140.045 253.816 139.799L256.9 134.463C257.085 134.124 257.008 133.707 256.715 133.476L253.461 130.932ZM250.408 128.295C250.469 128.773 250.485 129.096 250.485 129.42C250.485 129.744 250.454 130.083 250.408 130.546L250.192 132.289L251.564 133.368L253.23 134.663L252.15 136.529L250.192 135.743L248.588 135.095L247.2 136.144C246.537 136.637 245.905 137.007 245.273 137.269L243.638 137.933L243.391 139.675L243.083 141.757H240.924L240.631 139.675L240.384 137.933L238.75 137.269C238.087 136.992 237.47 136.637 236.853 136.175L235.45 135.095L233.815 135.758L231.857 136.545L230.777 134.679L232.443 133.383L233.815 132.304L233.599 130.561C233.553 130.083 233.522 129.729 233.522 129.42C233.522 129.112 233.553 128.757 233.599 128.295L233.815 126.552L232.443 125.473L230.777 124.177L231.857 122.311L233.815 123.098L235.419 123.745L236.807 122.697C237.47 122.203 238.102 121.833 238.734 121.571L240.369 120.908L240.616 119.165L240.924 117.084H243.067L243.36 119.165L243.607 120.908L245.242 121.571C245.905 121.849 246.522 122.203 247.139 122.666L248.542 123.745L250.176 123.082L252.135 122.296L253.214 124.162L251.564 125.473L250.192 126.552L250.408 128.295ZM242.003 123.252C238.595 123.252 235.835 126.012 235.835 129.42C235.835 132.828 238.595 135.589 242.003 135.589C245.411 135.589 248.172 132.828 248.172 129.42C248.172 126.012 245.411 123.252 242.003 123.252ZM242.003 132.504C240.307 132.504 238.919 131.117 238.919 129.42C238.919 127.724 240.307 126.336 242.003 126.336C243.7 126.336 245.088 127.724 245.088 129.42C245.088 131.117 243.7 132.504 242.003 132.504Z" fill="#C7C7C7"/>
<path d="M253.461 130.932C253.523 130.438 253.569 129.945 253.569 129.42C253.569 128.896 253.523 128.403 253.461 127.909L256.715 125.365C257.008 125.133 257.085 124.717 256.9 124.378L253.816 119.042C253.677 118.795 253.415 118.657 253.137 118.657C253.045 118.657 252.952 118.672 252.875 118.703L249.035 120.245C248.233 119.628 247.37 119.119 246.429 118.734L245.843 114.647C245.797 114.277 245.473 114 245.088 114H238.919C238.534 114 238.21 114.277 238.164 114.647L237.578 118.734C236.637 119.119 235.773 119.644 234.972 120.245L231.132 118.703C231.039 118.672 230.947 118.657 230.854 118.657C230.592 118.657 230.33 118.795 230.191 119.042L227.107 124.378C226.906 124.717 226.999 125.133 227.292 125.365L230.546 127.909C230.484 128.403 230.438 128.911 230.438 129.42C230.438 129.929 230.484 130.438 230.546 130.932L227.292 133.476C226.999 133.707 226.922 134.124 227.107 134.463L230.191 139.799C230.33 140.045 230.592 140.184 230.87 140.184C230.962 140.184 231.055 140.169 231.132 140.138L234.972 138.596C235.773 139.213 236.637 139.721 237.578 140.107L238.164 144.193C238.21 144.564 238.534 144.841 238.919 144.841H245.088C245.473 144.841 245.797 144.564 245.843 144.193L246.429 140.107C247.37 139.721 248.233 139.197 249.035 138.596L252.875 140.138C252.968 140.169 253.06 140.184 253.153 140.184C253.415 140.184 253.677 140.045 253.816 139.799L256.9 134.463C257.085 134.124 257.008 133.707 256.715 133.476L253.461 130.932ZM250.408 128.295C250.469 128.773 250.485 129.096 250.485 129.42C250.485 129.744 250.454 130.083 250.408 130.546L250.192 132.289L251.564 133.368L253.23 134.663L252.15 136.529L250.192 135.743L248.588 135.095L247.2 136.144C246.537 136.637 245.905 137.007 245.273 137.269L243.638 137.933L243.391 139.675L243.083 141.757H240.924L240.631 139.675L240.384 137.933L238.75 137.269C238.087 136.992 237.47 136.637 236.853 136.175L235.45 135.095L233.815 135.758L231.857 136.545L230.777 134.679L232.443 133.383L233.815 132.304L233.599 130.561C233.553 130.083 233.522 129.729 233.522 129.42C233.522 129.112 233.553 128.757 233.599 128.295L233.815 126.552L232.443 125.473L230.777 124.177L231.857 122.311L233.815 123.098L235.419 123.745L236.807 122.697C237.47 122.203 238.102 121.833 238.734 121.571L240.369 120.908L240.616 119.165L240.924 117.084H243.067L243.36 119.165L243.607 120.908L245.242 121.571C245.905 121.849 246.522 122.203 247.139 122.666L248.542 123.745L250.176 123.082L252.135 122.296L253.214 124.162L251.564 125.473L250.192 126.552L250.408 128.295ZM242.003 123.252C238.595 123.252 235.835 126.012 235.835 129.42C235.835 132.828 238.595 135.589 242.003 135.589C245.411 135.589 248.172 132.828 248.172 129.42C248.172 126.012 245.411 123.252 242.003 123.252ZM242.003 132.504C240.307 132.504 238.919 131.117 238.919 129.42C238.919 127.724 240.307 126.336 242.003 126.336C243.7 126.336 245.088 127.724 245.088 129.42C245.088 131.117 243.7 132.504 242.003 132.504Z" stroke="#C7C7C7" stroke-width="2" mask="url(#path-2-inside-1)"/>
</g>
<g filter="url(#filter1_d)">
<path d="M205.5 208.5C208.395 208.5 210.75 206.145 210.75 203.25C210.75 200.355 208.395 198 205.5 198C202.605 198 200.25 200.355 200.25 203.25C200.25 206.145 202.605 208.5 205.5 208.5ZM205.5 201C206.745 201 207.75 202.005 207.75 203.25C207.75 204.495 206.745 205.5 205.5 205.5C204.255 205.5 203.25 204.495 203.25 203.25C203.25 202.005 204.255 201 205.5 201ZM205.575 216H199.155C200.64 215.25 203.205 214.5 205.5 214.5C205.665 214.5 205.845 214.515 206.01 214.515C206.52 213.42 207.405 212.52 208.47 211.8C207.375 211.605 206.34 211.5 205.5 211.5C201.99 211.5 195 213.255 195 216.75V219H205.5V216.75C205.5 216.495 205.53 216.24 205.575 216ZM216.75 212.25C213.99 212.25 208.5 213.765 208.5 216.75V219H225V216.75C225 213.765 219.51 212.25 216.75 212.25ZM218.565 209.52C219.705 208.875 220.5 207.66 220.5 206.25C220.5 204.18 218.82 202.5 216.75 202.5C214.68 202.5 213 204.18 213 206.25C213 207.66 213.795 208.875 214.935 209.52C215.475 209.82 216.09 210 216.75 210C217.41 210 218.025 209.82 218.565 209.52Z" fill="#C7C7C7"/>
<path d="M205.5 212C206.009 212 206.6 212.04 207.238 212.119C206.621 212.662 206.092 213.289 205.707 214.005C205.641 214.002 205.57 214 205.5 214C203.118 214 200.476 214.772 198.93 215.553L199.155 216.5H205.008C205.003 216.582 205 216.666 205 216.75V218.5H195.5V216.75C195.5 216.059 195.841 215.418 196.486 214.822C197.135 214.223 198.057 213.704 199.12 213.278C201.246 212.427 203.807 212 205.5 212ZM210.25 203.25C210.25 205.868 208.119 208 205.5 208C202.881 208 200.75 205.868 200.75 203.25C200.75 200.631 202.881 198.5 205.5 198.5C208.119 198.5 210.25 200.631 210.25 203.25ZM208.25 203.25C208.25 201.728 207.021 200.5 205.5 200.5C203.979 200.5 202.75 201.728 202.75 203.25C202.75 204.771 203.979 206 205.5 206C207.021 206 208.25 204.771 208.25 203.25ZM209 216.75C209 216.171 209.262 215.636 209.756 215.139C210.254 214.638 210.965 214.2 211.791 213.838C213.445 213.114 215.439 212.75 216.75 212.75C218.061 212.75 220.055 213.114 221.709 213.838C222.535 214.2 223.246 214.638 223.744 215.139C224.238 215.636 224.5 216.171 224.5 216.75V218.5H209V216.75ZM220 206.25C220 207.464 219.316 208.52 218.32 209.083C217.848 209.346 217.316 209.5 216.75 209.5C216.184 209.5 215.652 209.346 215.18 209.083C214.184 208.52 213.5 207.464 213.5 206.25C213.5 204.456 214.956 203 216.75 203C218.544 203 220 204.456 220 206.25Z" stroke="#C7C7C7"/>
</g>
<g filter="url(#filter2_d)">
<path d="M211.186 51.8222L207.723 48.3995L207.764 48.3586C210.136 45.7131 211.827 42.6722 212.823 39.4541H216.818V36.7268H207.273V33.9995H204.545V36.7268H195V39.4404H210.232C209.318 42.0722 207.873 44.5677 205.909 46.7495C204.641 45.345 203.591 43.8041 202.759 42.1813H200.032C201.027 44.4041 202.391 46.5041 204.095 48.3995L197.155 55.245L199.091 57.1813L205.909 50.3631L210.15 54.6041L211.186 51.8222ZM218.864 44.9086H216.136L210 61.2722H212.727L214.255 57.1813H220.732L222.273 61.2722H225L218.864 44.9086ZM215.291 54.4541L217.5 48.5495L219.709 54.4541H215.291Z" fill="#C7C7C7"/>
<path d="M204.467 48.0652C202.978 46.4095 201.756 44.5958 200.818 42.6813H202.456C203.284 44.242 204.311 45.7256 205.538 47.0846L205.91 47.4963L206.281 47.084C208.29 44.8518 209.769 42.2981 210.704 39.6044L210.935 38.9404H210.232H195.5V37.2268H204.545H205.045V36.7268V34.4995H206.773V36.7268V37.2268H207.273H216.318V38.9541H212.823H212.454L212.345 39.3063C211.372 42.4523 209.72 45.4259 207.4 48.0147L207.369 48.046L207.014 48.4016L207.371 48.7552L210.605 51.9506L209.953 53.7001L206.263 50.0096L205.909 49.656L205.556 50.0096L199.091 56.4742L197.864 55.2474L204.447 48.7555L204.787 48.4202L204.467 48.0652ZM214.255 56.6813H213.908L213.786 57.0065L212.38 60.7722H210.722L216.483 45.4086H218.517L224.278 60.7722H222.619L221.2 57.0051L221.078 56.6813H220.732H214.255ZM214.823 54.2789L214.57 54.9541H215.291H219.709H220.43L220.177 54.2789L217.968 48.3743L217.5 47.1226L217.032 48.3743L214.823 54.2789Z" stroke="#C7C7C7"/>
</g>
<g filter="url(#filter3_d)">
<path d="M59.4408 53.8679H58.0858L57.6055 53.4048C59.2864 51.4494 60.2985 48.9108 60.2985 46.1492C60.2985 39.9914 55.307 35 49.1492 35C42.9914 35 38 39.9914 38 46.1492C38 52.307 42.9914 57.2985 49.1492 57.2985C51.9108 57.2985 54.4494 56.2864 56.4048 54.6055L56.8679 55.0858V56.4408L65.4443 65L68 62.4443L59.4408 53.8679ZM49.1492 53.8679C44.8782 53.8679 41.4305 50.4202 41.4305 46.1492C41.4305 41.8782 44.8782 38.4305 49.1492 38.4305C53.4202 38.4305 56.8679 41.8782 56.8679 46.1492C56.8679 50.4202 53.4202 53.8679 49.1492 53.8679ZM50.0069 41.8611H48.2916V45.2916H44.8611V47.0069H48.2916V50.4374H50.0069V47.0069H53.4374V45.2916H50.0069V41.8611Z" fill="#C7C7C7"/>
<path d="M57.7387 54.2278L57.884 54.3679H58.0858H59.2334L67.2932 62.4439L65.4439 64.2932L57.3679 56.2334V55.0858V54.884L57.2278 54.7387L56.7647 54.2584L56.4369 53.9185L56.0789 54.2263C54.2106 55.8324 51.7865 56.7985 49.1492 56.7985C43.2676 56.7985 38.5 52.0309 38.5 46.1492C38.5 40.2676 43.2676 35.5 49.1492 35.5C55.0309 35.5 59.7985 40.2676 59.7985 46.1492C59.7985 48.7865 58.8324 51.2106 57.2263 53.0789L56.9185 53.4369L57.2584 53.7647L57.7387 54.2278ZM48.2916 45.7916H48.7916V45.2916V42.3611H49.5069V45.2916V45.7916H50.0069H52.9374V46.5069H50.0069H49.5069V47.0069V49.9374H48.7916V47.0069V46.5069H48.2916H45.3611V45.7916H48.2916ZM40.9305 46.1492C40.9305 50.6964 44.6021 54.3679 49.1492 54.3679C53.6964 54.3679 57.3679 50.6964 57.3679 46.1492C57.3679 41.6021 53.6964 37.9305 49.1492 37.9305C44.6021 37.9305 40.9305 41.6021 40.9305 46.1492Z" stroke="#C7C7C7"/>
</g>
<g filter="url(#filter4_d)">
<path d="M65 203.727C65 205.227 63.7727 206.454 62.2727 206.454C62.0273 206.454 61.7955 206.427 61.5773 206.359L56.7227 211.2C56.7909 211.418 56.8182 211.663 56.8182 211.909C56.8182 213.409 55.5909 214.636 54.0909 214.636C52.5909 214.636 51.3636 213.409 51.3636 211.909C51.3636 211.663 51.3909 211.418 51.4591 211.2L47.9818 207.722C47.7636 207.79 47.5182 207.818 47.2727 207.818C47.0273 207.818 46.7818 207.79 46.5636 207.722L40.3591 213.94C40.4273 214.159 40.4545 214.39 40.4545 214.636C40.4545 216.136 39.2273 217.363 37.7273 217.363C36.2273 217.363 35 216.136 35 214.636C35 213.136 36.2273 211.909 37.7273 211.909C37.9727 211.909 38.2045 211.936 38.4227 212.004L44.6409 205.8C44.5727 205.581 44.5455 205.336 44.5455 205.09C44.5455 203.59 45.7727 202.363 47.2727 202.363C48.7727 202.363 50 203.59 50 205.09C50 205.336 49.9727 205.581 49.9045 205.8L53.3818 209.277C53.6 209.209 53.8455 209.181 54.0909 209.181C54.3364 209.181 54.5818 209.209 54.8 209.277L59.6409 204.422C59.5727 204.204 59.5455 203.972 59.5455 203.727C59.5455 202.227 60.7727 201 62.2727 201C63.7727 201 65 202.227 65 203.727Z" fill="#C7C7C7"/>
<path d="M61.7264 205.881L61.4381 205.791L61.2242 206.005L56.3697 210.845L56.1551 211.059L56.2455 211.349C56.2942 211.505 56.3182 211.697 56.3182 211.909C56.3182 213.132 55.3148 214.136 54.0909 214.136C52.8671 214.136 51.8636 213.132 51.8636 211.909C51.8636 211.697 51.8876 211.505 51.9363 211.349L52.0266 211.06L51.8126 210.846L48.3354 207.369L48.1214 207.155L47.8327 207.245C47.6768 207.294 47.4847 207.318 47.2727 207.318C47.0607 207.318 46.8687 207.294 46.7128 207.245L46.4237 207.155L46.2097 207.369L40.0051 213.587L39.7917 213.801L39.8819 214.09C39.9312 214.248 39.9545 214.427 39.9545 214.636C39.9545 215.86 38.9511 216.863 37.7273 216.863C36.5034 216.863 35.5 215.86 35.5 214.636C35.5 213.412 36.5034 212.409 37.7273 212.409C37.9364 212.409 38.1156 212.432 38.2736 212.481L38.562 212.571L38.7759 212.358L44.9941 206.153L45.2085 205.939L45.1181 205.65C45.0694 205.494 45.0455 205.302 45.0455 205.09C45.0455 203.867 46.0489 202.863 47.2727 202.863C48.4966 202.863 49.5 203.867 49.5 205.09C49.5 205.302 49.476 205.494 49.4273 205.65L49.3371 205.939L49.551 206.153L53.0283 209.63L53.2422 209.844L53.531 209.754C53.6869 209.705 53.8789 209.681 54.0909 209.681C54.3029 209.681 54.495 209.705 54.6509 209.754L54.9401 209.844L55.1541 209.63L59.995 204.775L60.2082 204.561L60.1181 204.273C60.0688 204.115 60.0455 203.936 60.0455 203.727C60.0455 202.503 61.0489 201.5 62.2727 201.5C63.4966 201.5 64.5 202.503 64.5 203.727C64.5 204.951 63.4966 205.954 62.2727 205.954C62.0636 205.954 61.8844 205.931 61.7264 205.881Z" stroke="#C7C7C7"/>
</g>
<g filter="url(#filter5_d)">
<path d="M1 141.909H31L16 116L1 141.909ZM17.3636 137.818H14.6364V135.09H17.3636V137.818ZM17.3636 132.363H14.6364V126.909H17.3636V132.363Z" fill="#C7C7C7"/>
<path d="M17.3636 138.318H17.8636V137.818V135.09V134.59H17.3636H14.6364H14.1364V135.09V137.818V138.318H14.6364H17.3636ZM17.3636 132.863H17.8636V132.363V126.909V126.409H17.3636H14.6364H14.1364V126.909V132.363V132.863H14.6364H17.3636ZM16 116.997L30.1328 141.409H1.86722L16 116.997Z" stroke="#C7C7C7"/>
</g>
<g filter="url(#filter6_d)">
<path d="M117.871 233.328L128.6 237.928L117.857 236.5L117.871 233.328ZM128.586 245.785L117.857 250.385V247.214L128.586 245.785ZM115.014 229L115 239L136.429 241.857L115 244.714L115.014 254.714L145 241.857L115.014 229Z" fill="#C7C7C7"/>
<path d="M118.068 232.869L117.375 232.571L117.371 233.326L117.357 236.497L117.355 236.937L117.791 236.995L128.534 238.424L128.797 237.469L118.068 232.869ZM128.783 246.245L128.52 245.29L117.791 246.718L117.357 246.776V247.214V250.385V251.144L118.054 250.845L128.783 246.245ZM115.513 253.956L115.501 245.151L136.495 242.352V241.361L115.501 238.562L115.513 229.757L143.731 241.857L115.513 253.956Z" stroke="#C7C7C7"/>
</g>
<g filter="url(#filter7_d)">
<path d="M141.523 6.33126L139.6 4.40854L137.159 6.86308L139.082 8.78581L141.523 6.33126ZM131.364 5.09035H128.636V0.999443H131.364V5.09035ZM145 17.3631H140.909V14.6358L145 14.6358V17.3631ZM128.636 26.8404V21.4404L127.273 20.6494C125.582 19.6676 124.545 17.8676 124.545 15.9313C124.545 12.9176 126.986 10.4767 130 10.4767C133.014 10.4767 135.455 12.9176 135.455 15.9313C135.455 17.8676 134.405 19.6676 132.727 20.6494L131.364 21.4404V26.8404H128.636ZM125.909 29.5676L134.091 29.5676V23.0085C136.532 21.5904 138.182 18.9585 138.182 15.9313C138.182 11.4176 134.514 7.74945 130 7.74945C125.486 7.74945 121.818 11.4176 121.818 15.9313C121.818 18.9585 123.468 21.5904 125.909 23.0085V29.5676ZM119.091 17.3631L115 17.3631V14.6358L119.091 14.6358V17.3631ZM122.855 6.84945L120.414 4.3949L118.491 6.31763L120.945 8.75854L122.855 6.84945Z" fill="#C7C7C7"/>
<path d="M128.136 26.8404V27.3404H128.636H131.364H131.864V26.8404V21.7284L132.978 21.082L132.98 21.081C134.807 20.0112 135.955 18.0487 135.955 15.9313C135.955 12.6415 133.29 9.97672 130 9.97672C126.71 9.97672 124.045 12.6415 124.045 15.9313C124.045 18.0468 125.178 20.011 127.022 21.0818L127.022 21.082L128.136 21.7284V26.8404ZM133.84 22.5762L133.591 22.7208V23.0085V29.0676L126.409 29.0676V23.0085V22.7208L126.16 22.5762C123.865 21.2429 122.318 18.7714 122.318 15.9313C122.318 11.6938 125.763 8.24945 130 8.24945C134.237 8.24945 137.682 11.6938 137.682 15.9313C137.682 18.7714 136.135 21.2429 133.84 22.5762ZM137.865 6.86209L139.601 5.11663L140.817 6.33225L139.081 8.07771L137.865 6.86209ZM129.136 4.59035V1.49944H130.864V4.59035H129.136ZM144.5 16.8631H141.409V15.1358L144.5 15.1358V16.8631ZM118.591 16.8631L115.5 16.8631V15.1358L118.591 15.1358V16.8631ZM119.199 6.31664L120.413 5.10299L122.148 6.84846L120.944 8.05241L119.199 6.31664Z" stroke="#C7C7C7"/>
</g>
<defs>
<filter id="filter0_d" x="226" y="113" width="38" height="38.8416" filterUnits="userSpaceOnUse" color-interpolation-filters="sRGB">
<feFlood flood-opacity="0" result="BackgroundImageFix"/>
<feColorMatrix in="SourceAlpha" type="matrix" values="0 0 0 0 0 0 0 0 0 0 0 0 0 0 0 0 0 0 127 0"/>
<feOffset dx="3" dy="3"/>
<feGaussianBlur stdDeviation="2"/>
<feColorMatrix type="matrix" values="0 0 0 0 0 0 0 0 0 0 0 0 0 0 0 0 0 0 0.25 0"/>
<feBlend mode="normal" in2="BackgroundImageFix" result="effect1_dropShadow"/>
<feBlend mode="normal" in="SourceGraphic" in2="effect1_dropShadow" result="shape"/>
</filter>
<filter id="filter1_d" x="194" y="197" width="38" height="29" filterUnits="userSpaceOnUse" color-interpolation-filters="sRGB">
<feFlood flood-opacity="0" result="BackgroundImageFix"/>
<feColorMatrix in="SourceAlpha" type="matrix" values="0 0 0 0 0 0 0 0 0 0 0 0 0 0 0 0 0 0 127 0"/>
<feOffset dx="3" dy="3"/>
<feGaussianBlur stdDeviation="2"/>
<feColorMatrix type="matrix" values="0 0 0 0 0 0 0 0 0 0 0 0 0 0 0 0 0 0 0.25 0"/>
<feBlend mode="normal" in2="BackgroundImageFix" result="effect1_dropShadow"/>
<feBlend mode="normal" in="SourceGraphic" in2="effect1_dropShadow" result="shape"/>
</filter>
<filter id="filter2_d" x="194" y="32.9995" width="38" height="35.2727" filterUnits="userSpaceOnUse" color-interpolation-filters="sRGB">
<feFlood flood-opacity="0" result="BackgroundImageFix"/>
<feColorMatrix in="SourceAlpha" type="matrix" values="0 0 0 0 0 0 0 0 0 0 0 0 0 0 0 0 0 0 127 0"/>
<feOffset dx="3" dy="3"/>
<feGaussianBlur stdDeviation="2"/>
<feColorMatrix type="matrix" values="0 0 0 0 0 0 0 0 0 0 0 0 0 0 0 0 0 0 0.25 0"/>
<feBlend mode="normal" in2="BackgroundImageFix" result="effect1_dropShadow"/>
<feBlend mode="normal" in="SourceGraphic" in2="effect1_dropShadow" result="shape"/>
</filter>
<filter id="filter3_d" x="37" y="34" width="38" height="38" filterUnits="userSpaceOnUse" color-interpolation-filters="sRGB">
<feFlood flood-opacity="0" result="BackgroundImageFix"/>
<feColorMatrix in="SourceAlpha" type="matrix" values="0 0 0 0 0 0 0 0 0 0 0 0 0 0 0 0 0 0 127 0"/>
<feOffset dx="3" dy="3"/>
<feGaussianBlur stdDeviation="2"/>
<feColorMatrix type="matrix" values="0 0 0 0 0 0 0 0 0 0 0 0 0 0 0 0 0 0 0.25 0"/>
<feBlend mode="normal" in2="BackgroundImageFix" result="effect1_dropShadow"/>
<feBlend mode="normal" in="SourceGraphic" in2="effect1_dropShadow" result="shape"/>
</filter>
<filter id="filter4_d" x="34" y="200" width="38" height="24.3636" filterUnits="userSpaceOnUse" color-interpolation-filters="sRGB">
<feFlood flood-opacity="0" result="BackgroundImageFix"/>
<feColorMatrix in="SourceAlpha" type="matrix" values="0 0 0 0 0 0 0 0 0 0 0 0 0 0 0 0 0 0 127 0"/>
<feOffset dx="3" dy="3"/>
<feGaussianBlur stdDeviation="2"/>
<feColorMatrix type="matrix" values="0 0 0 0 0 0 0 0 0 0 0 0 0 0 0 0 0 0 0.25 0"/>
<feBlend mode="normal" in2="BackgroundImageFix" result="effect1_dropShadow"/>
<feBlend mode="normal" in="SourceGraphic" in2="effect1_dropShadow" result="shape"/>
</filter>
<filter id="filter5_d" x="0" y="115" width="38" height="33.9091" filterUnits="userSpaceOnUse" color-interpolation-filters="sRGB">
<feFlood flood-opacity="0" result="BackgroundImageFix"/>
<feColorMatrix in="SourceAlpha" type="matrix" values="0 0 0 0 0 0 0 0 0 0 0 0 0 0 0 0 0 0 127 0"/>
<feOffset dx="3" dy="3"/>
<feGaussianBlur stdDeviation="2"/>
<feColorMatrix type="matrix" values="0 0 0 0 0 0 0 0 0 0 0 0 0 0 0 0 0 0 0.25 0"/>
<feBlend mode="normal" in2="BackgroundImageFix" result="effect1_dropShadow"/>
<feBlend mode="normal" in="SourceGraphic" in2="effect1_dropShadow" result="shape"/>
</filter>
<filter id="filter6_d" x="114" y="228" width="38" height="33.7143" filterUnits="userSpaceOnUse" color-interpolation-filters="sRGB">
<feFlood flood-opacity="0" result="BackgroundImageFix"/>
<feColorMatrix in="SourceAlpha" type="matrix" values="0 0 0 0 0 0 0 0 0 0 0 0 0 0 0 0 0 0 127 0"/>
<feOffset dx="3" dy="3"/>
<feGaussianBlur stdDeviation="2"/>
<feColorMatrix type="matrix" values="0 0 0 0 0 0 0 0 0 0 0 0 0 0 0 0 0 0 0.25 0"/>
<feBlend mode="normal" in2="BackgroundImageFix" result="effect1_dropShadow"/>
<feBlend mode="normal" in="SourceGraphic" in2="effect1_dropShadow" result="shape"/>
</filter>
<filter id="filter7_d" x="114" y="-0.000488281" width="38" height="36.5682" filterUnits="userSpaceOnUse" color-interpolation-filters="sRGB">
<feFlood flood-opacity="0" result="BackgroundImageFix"/>
<feColorMatrix in="SourceAlpha" type="matrix" values="0 0 0 0 0 0 0 0 0 0 0 0 0 0 0 0 0 0 127 0"/>
<feOffset dx="3" dy="3"/>
<feGaussianBlur stdDeviation="2"/>
<feColorMatrix type="matrix" values="0 0 0 0 0 0 0 0 0 0 0 0 0 0 0 0 0 0 0.25 0"/>
<feBlend mode="normal" in2="BackgroundImageFix" result="effect1_dropShadow"/>
<feBlend mode="normal" in="SourceGraphic" in2="effect1_dropShadow" result="shape"/>
</filter>
</defs>
</svg>
