<svg width="160" height="230" viewBox="0 0 160 230" fill="none" xmlns="http://www.w3.org/2000/svg">
<path fill-rule="evenodd" clip-rule="evenodd" d="M136.891 30.0019C138.58 29.9459 140.042 31.1386 141.684 31.5424C143.536 31.9977 145.542 31.7243 147.265 32.5518C149.117 33.4414 151.67 34.4251 151.971 36.4837C152.325 38.8999 149.301 40.6047 148.792 42.992C148.453 44.5848 149.584 46.1461 149.564 47.7757C149.543 49.6081 149.64 51.6043 148.672 53.1506C147.709 54.6893 145.966 55.617 144.274 56.2263C142.657 56.8085 140.798 55.9821 139.183 56.5679C137.224 57.2782 136.039 59.697 133.975 59.9607C132.021 60.2104 129.961 59.2387 128.465 57.9372C126.973 56.6389 126.765 54.379 125.661 52.728C124.609 51.1546 122.514 50.2439 122.082 48.393C121.647 46.5273 123.07 44.7336 123.354 42.8381C123.623 41.0432 123.213 39.1911 123.722 37.4508C124.261 35.6081 124.813 33.4674 126.401 32.4218C128.049 31.3362 130.302 32.2983 132.217 31.8564C133.862 31.477 135.205 30.0578 136.891 30.0019Z" fill="#F8F8FF" stroke="url(#paint0_linear)" stroke-width="2"/>
<path d="M47.375 164.875H48.0353L47.8563 164.239C47.7621 163.905 47.5224 163.603 47.2456 163.342C46.9595 163.071 46.586 162.799 46.1508 162.533C45.2792 162 44.1119 161.46 42.7755 160.977C40.104 160.011 36.6927 159.25 33.5 159.25C30.319 159.25 26.9251 160.005 24.2593 160.968C22.9257 161.45 21.7587 161.989 20.8824 162.523C20.4448 162.79 20.0685 163.062 19.7779 163.332C19.4957 163.595 19.2536 163.895 19.1487 164.223L18.9404 164.875H19.625H47.375ZM38.625 141.25C38.625 138.43 36.3199 136.125 33.5 136.125C30.6801 136.125 28.375 138.43 28.375 141.25C28.375 144.07 30.6801 146.375 33.5 146.375C36.3199 146.375 38.625 144.07 38.625 141.25ZM24.75 141.25C24.75 136.416 28.6655 132.5 33.5 132.5C38.3345 132.5 42.25 136.416 42.25 141.25C42.25 146.084 38.3345 150 33.5 150C28.6655 150 24.75 146.084 24.75 141.25ZM15.5 164.375C15.5 163.021 16.1744 161.798 17.3615 160.702C18.5519 159.603 20.2245 158.667 22.1205 157.907C25.9135 156.388 30.4753 155.625 33.5 155.625C36.5247 155.625 41.0865 156.388 44.8795 157.907C46.7755 158.667 48.4481 159.603 49.6385 160.702C50.8256 161.798 51.5 163.021 51.5 164.375V168.5H15.5V164.375Z" stroke="url(#paint1_linear)"/>
<path d="M140.375 164.875H141.035L140.856 164.239C140.762 163.905 140.522 163.603 140.246 163.342C139.959 163.071 139.586 162.799 139.151 162.533C138.279 162 137.112 161.46 135.775 160.977C133.104 160.011 129.693 159.25 126.5 159.25C123.319 159.25 119.925 160.005 117.259 160.968C115.926 161.45 114.759 161.989 113.882 162.523C113.445 162.79 113.068 163.062 112.778 163.332C112.496 163.595 112.254 163.895 112.149 164.223L111.94 164.875H112.625H140.375ZM131.625 141.25C131.625 138.43 129.32 136.125 126.5 136.125C123.68 136.125 121.375 138.43 121.375 141.25C121.375 144.07 123.68 146.375 126.5 146.375C129.32 146.375 131.625 144.07 131.625 141.25ZM117.75 141.25C117.75 136.416 121.666 132.5 126.5 132.5C131.334 132.5 135.25 136.416 135.25 141.25C135.25 146.084 131.334 150 126.5 150C121.666 150 117.75 146.084 117.75 141.25ZM108.5 164.375C108.5 163.021 109.174 161.798 110.361 160.702C111.552 159.603 113.224 158.667 115.121 157.907C118.914 156.388 123.475 155.625 126.5 155.625C129.525 155.625 134.086 156.388 137.879 157.907C139.776 158.667 141.448 159.603 142.639 160.702C143.826 161.798 144.5 163.021 144.5 164.375V168.5H108.5V164.375Z" stroke="url(#paint2_linear)"/>
<path d="M74.481 69.5H74.4792C62.9526 69.4583 53.4987 60.3793 52.9595 49.0238C52.9452 48.7232 52.7053 48.5 52.4352 48.5H46C45.7198 48.5 45.5079 48.725 45.5166 48.9838C45.9348 61.3434 54.2067 71.7747 65.5329 75.484C66.1507 75.6863 66.588 76.2606 66.588 76.9262V131C66.588 131.276 66.8119 131.5 67.088 131.5H73.5232C73.7994 131.5 74.0232 131.276 74.0232 131V107.8C74.0232 106.972 74.6948 106.3 75.5232 106.3H81.9584C82.7869 106.3 83.4584 106.972 83.4584 107.8V131C83.4584 131.276 83.6823 131.5 83.9584 131.5H90.3936C90.6698 131.5 90.8936 131.276 90.8936 131V84.2171C90.8936 82.8822 92.5062 82.2123 93.4521 83.1542L107.7 97.343C107.895 97.5373 108.211 97.5373 108.406 97.343L112.936 92.8315C113.133 92.6362 113.133 92.3188 112.937 92.1233L94.7945 74.0163L74.481 69.5ZM74.481 69.5H74.5087H74.5364H74.5641H74.5918H74.6195H74.6473H74.675H74.7027H74.7305H74.7582H74.786H74.8138H74.8415H74.8693H74.8971H74.9249H74.9527H74.9805H75.0083H75.0361H75.0639H75.0917H75.1195H75.1474H75.1752H75.203H75.2308H75.2587H75.2865H75.3144H75.3422H75.3701H75.3979H75.4258H75.4536H75.4815H75.5093H75.5372H75.5651H75.5929H75.6208H75.6487H75.6765H75.7044H75.7322H75.7601H75.788H75.8158H75.8437H75.8715H75.8994H75.9272H75.9551H75.9829H76.0108H76.0386H76.0665H76.0943H76.1221H76.15H76.1778H76.2056H76.2334H76.2613H76.2891H76.3169H76.3447H76.3725H76.4003H76.428H76.4558H76.4836H76.5114H76.5391H76.5669H76.5946H76.6224H76.6501H76.6778H76.7056H76.7333H76.761H76.7887H76.8164H76.844H76.8717H76.8994H76.927H76.9547H76.9823H77.0099H77.0375H77.0651H77.0927H77.1203H77.1479H77.1754H77.203H77.2305H77.258H77.2856H77.3131H77.3405H77.368H77.3955H77.4229H77.4504H77.4778H77.5052H77.5326H77.56H77.5874H77.6147H77.6421H77.6694H77.6967H77.724H77.7513H77.7785H77.8058H77.833H77.8602H77.8874H77.9146H77.9418H77.9689H77.9961H78.0232H78.0503H78.0774H78.1044H78.1315H78.1585H78.1855H78.2125H78.2394H78.2664H78.2933H78.3202H78.3471H78.374H78.4008H78.4277H78.4545H78.4813H78.508H78.5348H78.5615H78.5882H78.6149H78.6416H78.6682H78.6948H78.7214H78.748H78.7745H78.801H78.8275H78.854H78.8804H78.9069H78.9333H78.9596H78.986H79.0123H79.0386H79.0649H79.0912H79.1174H79.1436H79.1698H79.1959H79.222H79.2481H79.2742H79.3002H79.3262H79.3522H79.3782H79.4041H79.43H79.4559H79.4817H79.5075H79.5333H79.559H79.5848H79.6105H79.6361H79.6618H79.6874H79.7129H79.7385H79.764H79.7895H79.8149H79.8403H79.8657H79.8911H79.9164H79.9417H79.9669H79.9922H80.0174H80.0425H80.0676H80.0927H80.1178H80.1428H80.1678H80.1928H80.2177H80.2426H80.2674H80.2922H80.317H80.3417H80.3664H80.3911H80.4158H80.4403H80.4649H80.4894H80.5139H80.5384H80.5628H80.5872H80.6115H80.6358H80.6601H80.6843H80.7085H80.7326H80.7567H80.7808H80.8048H80.8288H80.8527H80.8766H80.9005H80.9243H80.9481H80.9718H80.9955H81.0192H81.0428H81.0664H81.0899H81.1134H81.1369H81.1603H81.1836H81.207H81.2302H81.2535H81.2767H81.2998H81.3229H81.346H81.369H81.3919H81.4149H81.4378H81.4606H81.4834H81.5061H81.5288H81.5515H81.5741H81.5966H81.6191H81.6416H81.664H81.6864H81.7087H81.731H81.7532H81.7754H81.7975H81.8196H81.8416H81.8636H81.8855H81.9074H81.9292H81.951H81.9727H81.9944H82.0161H82.0376H82.0592H82.0807H82.1021H82.1235H82.1448H82.1661H82.1873H82.2084H82.2296H82.2506H82.2716H82.2926H82.3135H82.3343H82.3551H82.3759H82.3966H82.4172H82.4378H82.4583H82.4788H82.4992H82.5195H82.5398H82.5601H82.5803H82.6004H82.6205H82.6405H82.6605H82.6804H82.7002H82.72H82.7398H82.7594H82.7791H82.7986H82.8181H82.8376H82.857H82.8763H82.8955H82.9148H82.9339H82.953H82.972H82.991H83.0099H83.0287H83.0475H83.0662H83.0849H83.1035H83.122H83.1405H83.1589H83.1773H83.1956H83.2138H83.232H83.2501H83.2681H83.2861H83.304H83.3218H83.3396H83.3573H83.375H83.3926H83.4101H83.4275H83.4449H83.4622H83.4795H83.4967H83.5138H83.5309H83.5479H83.5648H83.5817H83.5985H83.6152H83.6318H83.6484H83.6649H83.6814H83.6978H83.7141H83.7303H83.7465H83.7626H83.7787H83.7946H83.8105H83.8263H83.8421H83.8578H83.8734H83.889H83.9044H83.9198H83.9352H83.9504H83.9656H83.9807H83.9958H84.0107H84.0256H84.0404H84.0552H84.0699H84.0845H84.099H84.1134H84.1278H84.1421H84.1564H84.1705H84.1846H84.1986H84.2125H84.2264H84.2402H84.2539H84.2675H84.281H84.2945H84.3079H84.3212H84.3345H84.3476H84.3607H84.3737H84.3866H84.3995H84.4123H84.425H84.4376H84.4501H84.4626H84.4749H84.4872H84.4994H84.5116H84.5236H84.5356H84.5475H84.5593H84.571H84.5827H84.5942H84.6057H84.6171H84.6285H84.6397H84.6508H84.6619H84.6729H84.6838H84.6946H84.7054H84.716H84.7266H84.7371H84.7475H84.7578H84.768H84.7782H84.7882H84.7982H84.8081H84.8179H84.8276H84.8372H84.8468H84.8562H84.8656H84.8749H84.8841H84.8932H84.9022H84.9111H84.92H84.9287H84.9374H84.946H84.9545H84.9629H84.9712H84.9794H84.9875H84.9956H85.0035H85.0114H85.0191H85.0268H85.0344H85.0419H85.0493H85.0566H85.0638H85.0709H85.078H85.0849H85.0918H85.0985H85.1052H85.1117H85.1182H85.1246H85.1309H85.1371H85.1432H85.1492H85.1551H85.1609H85.1666H85.1722H85.1778H85.1832H85.1885H85.1938C90.2771 69.5 92.9666 72.1889 94.6231 73.8452M74.481 69.5L94.6231 73.8452M94.6231 73.8452C94.6814 73.9034 94.7383 73.9604 94.7941 74.0159L94.6231 73.8452Z" stroke="url(#paint3_linear)"/>
<path d="M86.5 56C86.5 60.114 82.9473 63.5 78.5 63.5C74.0527 63.5 70.5 60.114 70.5 56C70.5 51.886 74.0527 48.5 78.5 48.5C82.9473 48.5 86.5 51.886 86.5 56Z" stroke="url(#paint4_linear)"/>
<rect x="1" y="1" width="158" height="228" rx="49" stroke="#F8F8FF" stroke-width="2"/>
<defs>
<linearGradient id="paint0_linear" x1="141.835" y1="60" x2="125.417" y2="40.6656" gradientUnits="userSpaceOnUse">
<stop offset="0.0572917" stop-color="#20E4FF"/>
<stop offset="1" stop-color="#8B30FF"/>
</linearGradient>
<linearGradient id="paint1_linear" x1="39.4628" y1="169" x2="19.2147" y2="145.154" gradientUnits="userSpaceOnUse">
<stop offset="0.0572917" stop-color="#20E4FF"/>
<stop offset="1" stop-color="#8B30FF"/>
</linearGradient>
<linearGradient id="paint2_linear" x1="132.463" y1="169" x2="112.215" y2="145.154" gradientUnits="userSpaceOnUse">
<stop offset="0.0572917" stop-color="#20E4FF"/>
<stop offset="1" stop-color="#8B30FF"/>
</linearGradient>
<linearGradient id="paint3_linear" x1="90.6198" y1="132" x2="44.0606" y2="86.9597" gradientUnits="userSpaceOnUse">
<stop offset="0.0572917" stop-color="#20E4FF"/>
<stop offset="1" stop-color="#8B30FF"/>
</linearGradient>
<linearGradient id="paint4_linear" x1="81.2397" y1="64" x2="72.5847" y2="53.1703" gradientUnits="userSpaceOnUse">
<stop offset="0.0572917" stop-color="#20E4FF"/>
<stop offset="1" stop-color="#8B30FF"/>
</linearGradient>
</defs>
</svg>
