<svg width="19" height="20" viewBox="0 0 19 20" fill="none" xmlns="http://www.w3.org/2000/svg">
<path d="M17.5495 19.9319C17.4485 19.8952 17.3561 19.8652 17.3441 19.8652C17.3321 19.8647 16.4216 18.9646 15.3206 17.8647L13.3189 15.8649L12.9768 16.0725C10.6447 17.4882 7.6163 17.0824 5.72243 15.1C4.23404 13.5422 3.71988 11.2417 4.40383 9.20017C5.08345 7.17166 6.84806 5.66382 8.97681 5.29265C9.48009 5.20431 10.4277 5.20431 10.931 5.29265C13.3876 5.72098 15.2934 7.61933 15.7205 10.0633C15.8179 10.6205 15.8164 11.5602 15.7174 12.0797C15.5615 12.897 15.2481 13.6789 14.8291 14.296L14.6422 14.5712L16.5692 16.495C17.629 17.553 18.5514 18.5116 18.6188 18.6251C18.763 18.8672 18.7815 19.2459 18.6605 19.4791C18.511 19.7676 18.1287 20.0057 17.8248 19.9999C17.7743 19.9991 17.6504 19.9686 17.5495 19.9319ZM10.5466 15.3425C11.1633 15.2842 12.0366 14.918 12.604 14.4804C13.3239 13.9252 13.8719 13.1055 14.1307 12.1969C14.2566 11.755 14.3025 10.8673 14.2245 10.3838C13.8861 8.286 12.0739 6.73966 9.9539 6.73966C8.00513 6.73966 6.28421 8.06033 5.76904 9.95117C5.67718 10.2883 5.66314 10.444 5.66558 11.0985C5.66808 11.786 5.67974 11.893 5.79221 12.2595C6.31557 13.9662 7.78029 15.195 9.4908 15.3625C9.87766 15.4009 9.95218 15.3992 10.5466 15.3425ZM7.52149 12.9344V12.5672H10.3686H13.2156L13.1612 12.6705C13.1312 12.7272 13.0264 12.8925 12.9284 13.0377L12.7501 13.3015H10.1358H7.52149L7.52149 12.9344ZM7.52149 11.1903V10.8232H10.5276H13.5337V11.0468C13.5337 11.1702 13.5208 11.3352 13.505 11.414L13.4763 11.5573H10.4989H7.52149L7.52149 11.1903ZM7.52149 9.538V9.171H10.2485H12.9755L13.0678 9.321C13.1187 9.40267 13.2022 9.56834 13.2535 9.68801L13.3468 9.90584H10.4342H7.52149L7.52149 9.538ZM1.21099 18.9901C0.671811 18.8144 0.254775 18.3901 0.085711 17.845C-0.00578947 17.55 -0.00667271 17.4565 0.00546069 9.44384L0.0177939 1.34113L0.190925 0.990791C0.448063 0.470622 0.84984 0.15512 1.40708 0.0359529C1.54767 0.00595278 3.32132 -0.00571392 6.44304 0.00261945C11.0785 0.0192862 11.2698 0.0192861 11.4685 0.10262C11.5821 0.150954 11.7612 0.249287 11.8664 0.320454C12.151 0.512955 14.8199 3.3078 14.9719 3.57247C15.2084 3.98431 15.2307 4.16131 15.2313 5.63415L15.2318 6.98582L14.8303 6.55566L14.4287 6.12565L14.4057 5.54432C14.3842 4.99765 14.375 4.95165 14.2515 4.77365C14.0156 4.43348 13.8764 4.39748 12.7964 4.39698C11.9017 4.39664 11.8476 4.39698 11.6206 4.28531C11.4559 4.20864 11.3428 4.11448 11.2534 3.97947L11.1243 3.78447L11.1013 2.58763C11.0758 1.25763 11.0612 1.18879 10.7643 1.00529C10.6089 0.908624 10.5987 0.908624 6.0934 0.910291C1.81035 0.911124 1.56876 0.910291 1.39462 0.995292C1.17626 1.09529 1.07841 1.19779 0.983319 1.42546C0.920719 1.57546 0.912719 2.4933 0.912719 9.53717C0.912719 16.581 0.920719 17.4989 0.983319 17.6487C1.0784 17.8764 1.17626 17.9787 1.39462 18.0791C1.56982 18.1591 1.85484 18.1641 7.63628 18.1641C13.5565 18.1641 13.6985 18.1624 13.8779 18.0741C13.9789 18.0241 14.0974 17.9591 14.1412 17.9257C14.2105 17.8757 14.2598 17.9057 14.5226 18.1656L14.8244 18.4632L14.6137 18.6556C14.4978 18.7606 14.2849 18.8956 14.1405 18.9539L13.8779 19.0606L7.68218 19.0772C1.64654 19.0772 1.47929 19.0772 1.21104 18.9972L1.21099 18.9901Z" fill="url(#paint0_linear)"/>
<defs>
<linearGradient id="paint0_linear" x1="12.3903" y1="20" x2="1.35227" y2="7.81949" gradientUnits="userSpaceOnUse">
<stop offset="0.0572917" stop-color="#20E4FF"/>
<stop offset="1" stop-color="#8B30FF"/>
</linearGradient>
</defs>
</svg>
