<svg width="23" height="21" viewBox="0 0 23 21" fill="none" xmlns="http://www.w3.org/2000/svg">
<path d="M16.247 12.8241H15.2627L14.9139 12.5094C16.1348 11.1803 16.8699 9.45489 16.8699 7.5779C16.8699 3.39257 13.2445 0 8.77185 0C4.29925 0 0.673828 3.39257 0.673828 7.5779C0.673828 11.7632 4.29925 15.1558 8.77185 15.1558C10.7777 15.1558 12.6215 14.468 14.0418 13.3254L14.3782 13.6519V14.5729L20.6074 20.3904L22.4637 18.6533L16.247 12.8241ZM8.77185 12.8241C5.66969 12.8241 3.16553 10.4808 3.16553 7.5779C3.16553 4.67498 5.66969 2.33166 8.77185 2.33166C11.874 2.33166 14.3782 4.67498 14.3782 7.5779C14.3782 10.4808 11.874 12.8241 8.77185 12.8241Z" fill="url(#paint0_linear)"/>
<defs>
<linearGradient id="paint0_linear" x1="15.0804" y1="20.3904" x2="4.06472" y2="6.52709" gradientUnits="userSpaceOnUse">
<stop offset="0.0572917" stop-color="#20E4FF"/>
<stop offset="1" stop-color="#8B30FF"/>
</linearGradient>
</defs>
</svg>
