<svg width="34" height="38" viewBox="0 0 34 38" fill="none" xmlns="http://www.w3.org/2000/svg">
<line x1="33.5" x2="33.5" y2="38" stroke="#F8F8FF"/>
<path d="M15.625 21.8241H14.6375L14.2875 21.5093C15.5125 20.1803 16.25 18.4549 16.25 16.5779C16.25 12.3926 12.6125 9 8.125 9C3.6375 9 0 12.3926 0 16.5779C0 20.7632 3.6375 24.1558 8.125 24.1558C10.1375 24.1558 11.9875 23.4679 13.4125 22.3254L13.75 22.6518V23.5728L20 29.3903L21.8625 27.6532L15.625 21.8241ZM8.125 21.8241C5.0125 21.8241 2.5 19.4808 2.5 16.5779C2.5 13.675 5.0125 11.3317 8.125 11.3317C11.2375 11.3317 13.75 13.675 13.75 16.5779C13.75 19.4808 11.2375 21.8241 8.125 21.8241Z" fill="url(#paint0_linear)"/>
<defs>
<linearGradient id="paint0_linear" x1="14.4545" y1="29.3903" x2="3.44724" y2="15.4914" gradientUnits="userSpaceOnUse">
<stop offset="0.0572917" stop-color="#20E4FF"/>
<stop offset="1" stop-color="#8B30FF"/>
</linearGradient>
</defs>
</svg>
